<?xml version="1.0" encoding="UTF-8"?>
<svg xmlns="http://www.w3.org/2000/svg" xmlns:xlink="http://www.w3.org/1999/xlink" width="40px" height="40px" viewBox="0 0 40 40" version="1.1">
<g id="surface1">
<path style=" stroke:none;fill-rule:evenodd;fill:rgb(83.137255%,7.843137%,7.843137%);fill-opacity:1;" d="M 24.859375 7.054688 C 24.839844 7.082031 24.8125 7.128906 24.808594 7.160156 C 24.800781 7.191406 24.773438 7.230469 24.746094 7.246094 C 24.679688 7.289062 24.789062 7.558594 24.925781 7.6875 C 25.058594 7.8125 25.070312 7.898438 24.960938 7.96875 C 24.914062 7.996094 24.878906 8.042969 24.878906 8.070312 C 24.878906 8.101562 24.867188 8.117188 24.851562 8.105469 C 24.738281 8.039062 24.683594 8.398438 24.78125 8.578125 C 24.875 8.75 25.28125 8.894531 25.28125 8.75 C 25.28125 8.734375 25.304688 8.71875 25.335938 8.71875 C 25.363281 8.71875 25.445312 8.664062 25.515625 8.597656 L 25.644531 8.472656 L 25.761719 8.597656 C 25.828125 8.664062 25.90625 8.71875 25.941406 8.71875 C 25.972656 8.71875 26 8.738281 26 8.761719 C 26 8.84375 26.296875 8.800781 26.410156 8.699219 C 26.546875 8.582031 26.570312 8.234375 26.449219 8.125 C 26.242188 7.933594 26.242188 7.832031 26.441406 7.640625 C 26.59375 7.492188 26.667969 7.238281 26.558594 7.238281 C 26.539062 7.238281 26.519531 7.210938 26.519531 7.175781 C 26.519531 7.050781 26.414062 7 26.140625 7 C 25.996094 7 25.882812 7.011719 25.890625 7.03125 C 25.898438 7.046875 25.851562 7.113281 25.785156 7.179688 C 25.714844 7.246094 25.664062 7.292969 25.667969 7.285156 C 25.753906 7.113281 24.988281 6.890625 24.859375 7.054688 M 28.398438 7.726562 C 28.398438 7.746094 28.371094 7.761719 28.339844 7.761719 C 28.257812 7.761719 28.078125 7.9375 28.078125 8.015625 C 28.078125 8.046875 28.0625 8.085938 28.039062 8.101562 C 28.019531 8.113281 28 8.257812 28 8.421875 C 28 8.59375 28.015625 8.71875 28.039062 8.71875 C 28.0625 8.71875 28.078125 8.742188 28.078125 8.765625 C 28.078125 8.792969 28.1875 8.917969 28.320312 9.046875 C 28.523438 9.242188 28.636719 9.40625 28.53125 9.347656 C 28.492188 9.328125 28.082031 9.746094 28.109375 9.777344 C 28.125 9.789062 28.105469 9.800781 28.070312 9.800781 C 28.011719 9.800781 27.996094 9.851562 27.933594 10.25 C 27.894531 10.515625 28.152344 10.878906 28.378906 10.878906 C 28.433594 10.878906 28.480469 10.898438 28.480469 10.921875 C 28.480469 10.941406 28.570312 10.960938 28.679688 10.960938 C 28.789062 10.960938 28.878906 10.941406 28.878906 10.921875 C 28.878906 10.898438 28.917969 10.878906 28.960938 10.878906 C 29.007812 10.878906 29.035156 10.863281 29.019531 10.839844 C 29.007812 10.816406 29.023438 10.800781 29.058594 10.800781 C 29.132812 10.800781 29.175781 10.765625 29.421875 10.523438 C 29.570312 10.371094 29.601562 10.355469 29.625 10.417969 C 29.660156 10.511719 29.828125 10.679688 29.859375 10.648438 C 29.871094 10.636719 29.878906 10.65625 29.878906 10.691406 C 29.878906 10.730469 29.898438 10.761719 29.917969 10.761719 C 29.9375 10.761719 30 10.804688 30.054688 10.859375 C 30.164062 10.964844 30.800781 11.015625 30.800781 10.921875 C 30.800781 10.898438 30.835938 10.878906 30.878906 10.878906 C 30.925781 10.878906 30.960938 10.863281 30.960938 10.84375 C 30.960938 10.820312 30.996094 10.792969 31.039062 10.78125 C 31.097656 10.761719 31.121094 10.71875 31.121094 10.636719 C 31.121094 10.574219 31.136719 10.519531 31.160156 10.519531 C 31.183594 10.519531 31.199219 10.414062 31.199219 10.28125 C 31.199219 10.148438 31.183594 10.039062 31.160156 10.039062 C 31.136719 10.039062 31.121094 10.011719 31.121094 9.976562 C 31.121094 9.945312 31.019531 9.820312 30.898438 9.703125 C 30.675781 9.484375 30.640625 9.402344 30.730469 9.296875 C 30.882812 9.121094 30.996094 9.007812 31.011719 9.023438 C 31.074219 9.085938 31.199219 8.683594 31.199219 8.414062 C 31.199219 8.128906 31.074219 7.859375 30.984375 7.949219 C 30.972656 7.960938 30.960938 7.941406 30.960938 7.90625 C 30.960938 7.867188 30.941406 7.847656 30.921875 7.859375 C 30.898438 7.875 30.878906 7.855469 30.878906 7.824219 C 30.878906 7.742188 30.339844 7.734375 30.191406 7.808594 C 30.042969 7.890625 29.878906 8.027344 29.878906 8.078125 C 29.878906 8.105469 29.867188 8.117188 29.851562 8.105469 C 29.8125 8.082031 29.71875 8.183594 29.75 8.214844 C 29.761719 8.230469 29.746094 8.238281 29.710938 8.238281 C 29.675781 8.238281 29.640625 8.261719 29.628906 8.289062 C 29.621094 8.320312 29.550781 8.277344 29.457031 8.179688 C 29.371094 8.089844 29.25 7.976562 29.183594 7.929688 C 29.121094 7.878906 29.085938 7.839844 29.105469 7.839844 C 29.125 7.839844 29.078125 7.804688 29.003906 7.757812 C 28.871094 7.675781 28.398438 7.648438 28.398438 7.726562 M 19.121094 11 C 19.121094 11.023438 19.085938 11.039062 19.039062 11.039062 C 18.996094 11.039062 18.960938 11.054688 18.960938 11.070312 C 18.960938 11.113281 18.757812 11.199219 18.652344 11.199219 C 18.601562 11.199219 18.558594 11.21875 18.558594 11.238281 C 18.558594 11.261719 18.523438 11.28125 18.480469 11.28125 C 18.4375 11.28125 18.398438 11.292969 18.398438 11.308594 C 18.398438 11.347656 18.207031 11.441406 18.132812 11.441406 C 18.101562 11.441406 18.078125 11.453125 18.078125 11.46875 C 18.078125 11.507812 17.886719 11.601562 17.8125 11.601562 C 17.785156 11.601562 17.761719 11.617188 17.761719 11.640625 C 17.761719 11.660156 17.734375 11.679688 17.699219 11.679688 C 17.667969 11.679688 17.640625 11.699219 17.640625 11.71875 C 17.640625 11.742188 17.605469 11.761719 17.558594 11.761719 C 17.515625 11.761719 17.480469 11.777344 17.480469 11.800781 C 17.480469 11.820312 17.445312 11.839844 17.398438 11.839844 C 17.355469 11.839844 17.320312 11.859375 17.320312 11.878906 C 17.320312 11.902344 17.285156 11.921875 17.238281 11.921875 C 17.195312 11.921875 17.160156 11.9375 17.160156 11.960938 C 17.160156 11.980469 17.105469 12 17.039062 12 C 16.972656 12 16.921875 12.019531 16.921875 12.039062 C 16.921875 12.0625 16.882812 12.078125 16.839844 12.078125 C 16.796875 12.078125 16.761719 12.097656 16.761719 12.121094 C 16.761719 12.140625 16.722656 12.160156 16.679688 12.160156 C 16.636719 12.160156 16.601562 12.179688 16.601562 12.199219 C 16.601562 12.222656 16.5625 12.238281 16.519531 12.238281 C 16.476562 12.238281 16.441406 12.257812 16.441406 12.28125 C 16.441406 12.300781 16.402344 12.320312 16.359375 12.320312 C 16.316406 12.320312 16.28125 12.339844 16.28125 12.359375 C 16.28125 12.382812 16.242188 12.398438 16.199219 12.398438 C 16.15625 12.398438 16.121094 12.417969 16.121094 12.4375 C 16.121094 12.460938 16.058594 12.488281 15.980469 12.503906 C 15.902344 12.515625 15.839844 12.542969 15.839844 12.566406 C 15.839844 12.585938 15.804688 12.601562 15.761719 12.601562 C 15.714844 12.601562 15.679688 12.617188 15.679688 12.640625 C 15.679688 12.660156 15.644531 12.679688 15.601562 12.679688 C 15.554688 12.679688 15.519531 12.699219 15.519531 12.71875 C 15.519531 12.742188 15.484375 12.761719 15.445312 12.761719 C 15.402344 12.761719 15.265625 12.8125 15.140625 12.878906 C 15.015625 12.945312 14.886719 13 14.855469 13 C 14.824219 13 14.800781 13.019531 14.800781 13.039062 C 14.800781 13.0625 14.773438 13.078125 14.738281 13.078125 C 14.707031 13.078125 14.679688 13.097656 14.679688 13.121094 C 14.679688 13.140625 14.644531 13.160156 14.597656 13.160156 C 14.550781 13.160156 14.488281 13.1875 14.453125 13.21875 C 14.421875 13.253906 14.378906 13.269531 14.355469 13.257812 C 14.335938 13.246094 14.320312 13.253906 14.320312 13.277344 C 14.320312 13.300781 14.292969 13.320312 14.261719 13.320312 C 14.226562 13.320312 14.199219 13.339844 14.199219 13.359375 C 14.199219 13.382812 14.164062 13.398438 14.121094 13.398438 C 14.074219 13.398438 14.039062 13.414062 14.039062 13.429688 C 14.039062 13.476562 13.835938 13.558594 13.730469 13.558594 C 13.679688 13.558594 13.640625 13.578125 13.640625 13.601562 C 13.640625 13.621094 13.605469 13.640625 13.558594 13.640625 C 13.515625 13.640625 13.480469 13.65625 13.480469 13.679688 C 13.480469 13.703125 13.445312 13.71875 13.398438 13.71875 C 13.355469 13.71875 13.320312 13.734375 13.320312 13.75 C 13.320312 13.785156 13.125 13.878906 13.054688 13.878906 C 13.027344 13.878906 13 13.894531 12.992188 13.910156 C 12.984375 13.925781 12.855469 14.003906 12.699219 14.078125 C 12.546875 14.15625 12.410156 14.234375 12.398438 14.25 C 12.382812 14.269531 12.34375 14.269531 12.308594 14.257812 C 12.269531 14.242188 12.238281 14.25 12.238281 14.277344 C 12.238281 14.300781 12.1875 14.320312 12.125 14.320312 C 12.058594 14.320312 12 14.335938 11.992188 14.355469 C 11.984375 14.378906 11.953125 14.398438 11.921875 14.40625 C 11.886719 14.414062 11.851562 14.429688 11.839844 14.441406 C 11.792969 14.484375 11.46875 14.640625 11.417969 14.640625 C 11.386719 14.640625 11.359375 14.65625 11.359375 14.679688 C 11.359375 14.703125 11.324219 14.71875 11.277344 14.71875 C 11.230469 14.71875 11.207031 14.738281 11.21875 14.761719 C 11.234375 14.78125 11.207031 14.800781 11.164062 14.800781 C 11.117188 14.800781 11.078125 14.816406 11.078125 14.839844 C 11.078125 14.863281 11.054688 14.878906 11.027344 14.878906 C 10.953125 14.878906 10.761719 14.972656 10.761719 15.011719 C 10.761719 15.027344 10.722656 15.039062 10.679688 15.039062 C 10.636719 15.039062 10.601562 15.058594 10.601562 15.078125 C 10.601562 15.101562 10.546875 15.121094 10.480469 15.121094 C 10.414062 15.121094 10.359375 15.136719 10.359375 15.160156 C 10.359375 15.183594 10.324219 15.199219 10.28125 15.199219 C 10.234375 15.199219 10.199219 15.21875 10.199219 15.238281 C 10.199219 15.261719 10.164062 15.28125 10.121094 15.28125 C 10.074219 15.28125 10.039062 15.292969 10.039062 15.308594 C 10.039062 15.347656 9.84375 15.441406 9.773438 15.441406 C 9.742188 15.441406 9.71875 15.457031 9.71875 15.480469 C 9.71875 15.503906 9.683594 15.519531 9.640625 15.519531 C 9.597656 15.519531 9.558594 15.535156 9.558594 15.550781 C 9.558594 15.570312 9.496094 15.609375 9.421875 15.640625 C 9.34375 15.671875 9.28125 15.710938 9.28125 15.726562 C 9.28125 15.746094 9.242188 15.761719 9.199219 15.761719 C 9.15625 15.761719 9.121094 15.777344 9.121094 15.796875 C 9.121094 15.828125 8.839844 15.898438 8.773438 15.878906 C 8.761719 15.875 8.738281 15.886719 8.722656 15.90625 C 8.6875 15.960938 8.527344 16.039062 8.460938 16.039062 C 8.425781 16.039062 8.398438 16.058594 8.398438 16.078125 C 8.398438 16.101562 8.363281 16.121094 8.320312 16.121094 C 8.277344 16.121094 8.238281 16.136719 8.238281 16.160156 C 8.238281 16.183594 8.203125 16.199219 8.160156 16.199219 C 8.117188 16.199219 8.078125 16.21875 8.078125 16.238281 C 8.078125 16.261719 8.042969 16.28125 8 16.28125 C 7.957031 16.28125 7.921875 16.296875 7.921875 16.320312 C 7.921875 16.34375 7.890625 16.359375 7.855469 16.359375 C 7.824219 16.359375 7.765625 16.386719 7.734375 16.421875 C 7.699219 16.453125 7.65625 16.46875 7.636719 16.457031 C 7.617188 16.445312 7.601562 16.453125 7.601562 16.476562 C 7.601562 16.5 7.582031 16.519531 7.558594 16.519531 C 7.316406 16.519531 7.125 17.203125 7.289062 17.488281 C 7.371094 17.628906 7.511719 17.761719 7.582031 17.761719 C 7.617188 17.761719 7.632812 17.777344 7.621094 17.800781 C 7.605469 17.820312 7.632812 17.839844 7.675781 17.839844 C 7.71875 17.839844 7.765625 17.859375 7.78125 17.878906 C 7.792969 17.902344 7.835938 17.921875 7.875 17.921875 C 7.960938 17.921875 8.160156 18.011719 8.160156 18.050781 C 8.160156 18.066406 8.214844 18.078125 8.28125 18.078125 C 8.347656 18.078125 8.398438 18.097656 8.398438 18.121094 C 8.398438 18.140625 8.4375 18.160156 8.480469 18.160156 C 8.523438 18.160156 8.558594 18.179688 8.558594 18.199219 C 8.558594 18.222656 8.597656 18.238281 8.640625 18.238281 C 8.683594 18.238281 8.71875 18.257812 8.71875 18.28125 C 8.71875 18.300781 8.773438 18.320312 8.839844 18.320312 C 8.90625 18.320312 8.960938 18.339844 8.960938 18.359375 C 8.960938 18.382812 8.992188 18.402344 9.03125 18.402344 C 9.070312 18.402344 9.144531 18.4375 9.199219 18.480469 C 9.253906 18.523438 9.339844 18.558594 9.390625 18.558594 C 9.441406 18.558594 9.480469 18.578125 9.480469 18.601562 C 9.480469 18.621094 9.515625 18.640625 9.558594 18.640625 C 9.605469 18.640625 9.640625 18.65625 9.640625 18.679688 C 9.640625 18.703125 9.675781 18.71875 9.71875 18.71875 C 9.765625 18.71875 9.800781 18.738281 9.800781 18.761719 C 9.800781 18.78125 9.855469 18.800781 9.921875 18.800781 C 9.984375 18.800781 10.039062 18.816406 10.039062 18.839844 C 10.039062 18.863281 10.074219 18.878906 10.121094 18.878906 C 10.164062 18.878906 10.199219 18.898438 10.199219 18.921875 C 10.199219 18.945312 10.214844 18.953125 10.238281 18.941406 C 10.257812 18.929688 10.296875 18.941406 10.328125 18.96875 C 10.355469 18.996094 10.421875 19.027344 10.46875 19.03125 C 10.519531 19.039062 10.609375 19.070312 10.671875 19.101562 C 10.730469 19.132812 10.820312 19.160156 10.871094 19.160156 C 10.917969 19.160156 10.960938 19.179688 10.960938 19.199219 C 10.960938 19.222656 10.996094 19.238281 11.039062 19.238281 C 11.085938 19.238281 11.121094 19.257812 11.121094 19.28125 C 11.121094 19.300781 11.15625 19.320312 11.199219 19.320312 C 11.242188 19.320312 11.28125 19.339844 11.28125 19.359375 C 11.28125 19.382812 11.335938 19.398438 11.398438 19.398438 C 11.464844 19.398438 11.519531 19.417969 11.519531 19.441406 C 11.519531 19.460938 11.554688 19.480469 11.601562 19.480469 C 11.644531 19.480469 11.679688 19.496094 11.679688 19.519531 C 11.679688 19.542969 11.714844 19.558594 11.761719 19.558594 C 11.804688 19.558594 11.839844 19.578125 11.839844 19.601562 C 11.839844 19.621094 11.875 19.640625 11.921875 19.640625 C 12 19.640625 12 19.667969 12 24.140625 C 12 27.113281 12.011719 28.640625 12.039062 28.640625 C 12.0625 28.640625 12.078125 28.675781 12.078125 28.722656 C 12.078125 28.769531 12.097656 28.792969 12.121094 28.78125 C 12.140625 28.765625 12.160156 28.785156 12.160156 28.816406 C 12.160156 28.851562 12.195312 28.878906 12.238281 28.878906 C 12.285156 28.878906 12.320312 28.898438 12.320312 28.921875 C 12.320312 28.941406 12.355469 28.960938 12.398438 28.960938 C 12.441406 28.960938 12.488281 28.976562 12.5 29 C 12.535156 29.054688 28.078125 29.054688 28.078125 29 C 28.078125 28.976562 28.105469 28.960938 28.140625 28.960938 C 28.214844 28.960938 28.480469 28.691406 28.480469 28.617188 C 28.480469 28.585938 28.496094 28.558594 28.519531 28.558594 C 28.546875 28.558594 28.558594 27.007812 28.558594 23.980469 C 28.558594 19.492188 28.5625 19.398438 28.636719 19.398438 C 28.679688 19.398438 28.71875 19.378906 28.730469 19.351562 C 28.738281 19.324219 28.898438 19.457031 29.085938 19.652344 C 29.277344 19.84375 29.417969 20 29.410156 20 C 29.398438 20 29.4375 20.042969 29.5 20.09375 C 29.570312 20.15625 29.597656 20.210938 29.578125 20.242188 C 29.558594 20.273438 29.5625 20.28125 29.59375 20.265625 C 29.621094 20.246094 29.640625 20.257812 29.640625 20.289062 C 29.640625 20.316406 29.675781 20.363281 29.71875 20.390625 C 29.765625 20.417969 29.800781 20.476562 29.800781 20.519531 C 29.800781 20.5625 29.816406 20.601562 29.839844 20.601562 C 29.863281 20.601562 29.878906 20.625 29.878906 20.65625 C 29.878906 20.691406 29.910156 20.738281 29.949219 20.769531 C 30.042969 20.835938 30.121094 20.980469 30.121094 21.078125 C 30.121094 21.121094 30.136719 21.167969 30.160156 21.179688 C 30.183594 21.195312 30.199219 21.238281 30.199219 21.28125 C 30.199219 21.324219 30.21875 21.359375 30.238281 21.359375 C 30.261719 21.359375 30.28125 21.414062 30.28125 21.480469 C 30.28125 21.546875 30.296875 21.601562 30.320312 21.601562 C 30.34375 21.601562 30.359375 21.671875 30.359375 21.761719 C 30.359375 21.847656 30.378906 21.921875 30.398438 21.921875 C 30.421875 21.921875 30.441406 22.011719 30.441406 22.121094 C 30.441406 22.230469 30.457031 22.320312 30.480469 22.320312 C 30.507812 22.320312 30.519531 22.925781 30.519531 24.058594 C 30.519531 25.191406 30.535156 25.800781 30.558594 25.800781 C 30.582031 25.800781 30.601562 25.835938 30.601562 25.878906 C 30.601562 25.925781 30.617188 25.960938 30.640625 25.960938 C 30.660156 25.960938 30.679688 25.988281 30.679688 26.023438 C 30.679688 26.058594 30.707031 26.113281 30.738281 26.144531 C 30.769531 26.175781 30.824219 26.199219 30.855469 26.199219 C 30.890625 26.199219 30.921875 26.21875 30.921875 26.238281 C 30.921875 26.261719 31.054688 26.28125 31.242188 26.28125 L 31.5625 26.28125 L 31.921875 25.921875 L 31.921875 24 C 31.921875 22.746094 31.90625 22.078125 31.878906 22.078125 C 31.859375 22.078125 31.839844 21.980469 31.839844 21.863281 C 31.839844 21.742188 31.820312 21.632812 31.800781 21.621094 C 31.777344 21.605469 31.761719 21.535156 31.761719 21.457031 C 31.761719 21.382812 31.742188 21.320312 31.71875 21.320312 C 31.699219 21.320312 31.679688 21.265625 31.679688 21.203125 C 31.679688 21.136719 31.660156 21.074219 31.640625 21.058594 C 31.617188 21.046875 31.601562 20.992188 31.601562 20.9375 C 31.601562 20.882812 31.582031 20.839844 31.558594 20.839844 C 31.539062 20.839844 31.519531 20.785156 31.519531 20.71875 C 31.519531 20.652344 31.503906 20.601562 31.480469 20.601562 C 31.457031 20.601562 31.441406 20.5625 31.441406 20.519531 C 31.441406 20.476562 31.421875 20.441406 31.398438 20.441406 C 31.378906 20.441406 31.359375 20.402344 31.359375 20.359375 C 31.359375 20.316406 31.34375 20.28125 31.320312 20.28125 C 31.296875 20.28125 31.28125 20.242188 31.28125 20.199219 C 31.28125 20.15625 31.261719 20.121094 31.238281 20.121094 C 31.21875 20.121094 31.199219 20.085938 31.199219 20.039062 C 31.199219 19.996094 31.183594 19.960938 31.160156 19.960938 C 31.136719 19.960938 31.121094 19.929688 31.121094 19.890625 C 31.121094 19.851562 31.085938 19.792969 31.039062 19.761719 C 30.996094 19.726562 30.960938 19.667969 30.960938 19.628906 C 30.960938 19.589844 30.941406 19.566406 30.921875 19.578125 C 30.898438 19.59375 30.878906 19.578125 30.878906 19.542969 C 30.878906 19.507812 30.863281 19.480469 30.839844 19.480469 C 30.816406 19.480469 30.800781 19.445312 30.800781 19.402344 C 30.800781 19.359375 30.738281 19.273438 30.660156 19.210938 C 30.582031 19.148438 30.519531 19.074219 30.519531 19.046875 C 30.519531 19.015625 30.464844 18.941406 30.398438 18.875 C 30.265625 18.753906 30.296875 18.640625 30.457031 18.640625 C 30.492188 18.640625 30.519531 18.621094 30.519531 18.601562 C 30.519531 18.578125 30.558594 18.558594 30.609375 18.558594 C 30.660156 18.558594 30.746094 18.523438 30.800781 18.480469 C 30.855469 18.4375 30.929688 18.402344 30.96875 18.402344 C 31.007812 18.402344 31.039062 18.382812 31.039062 18.359375 C 31.039062 18.339844 31.09375 18.320312 31.160156 18.320312 C 31.226562 18.320312 31.28125 18.300781 31.28125 18.28125 C 31.28125 18.257812 31.316406 18.238281 31.359375 18.238281 C 31.402344 18.238281 31.441406 18.222656 31.441406 18.199219 C 31.441406 18.179688 31.476562 18.160156 31.519531 18.160156 C 31.5625 18.160156 31.601562 18.140625 31.601562 18.121094 C 31.601562 18.097656 31.652344 18.078125 31.71875 18.078125 C 31.785156 18.078125 31.839844 18.066406 31.839844 18.050781 C 31.839844 18.011719 32.039062 17.921875 32.125 17.921875 C 32.164062 17.921875 32.207031 17.902344 32.21875 17.878906 C 32.234375 17.859375 32.28125 17.839844 32.324219 17.839844 C 32.367188 17.839844 32.394531 17.820312 32.378906 17.800781 C 32.367188 17.777344 32.382812 17.761719 32.417969 17.761719 C 32.488281 17.761719 32.628906 17.628906 32.710938 17.488281 C 32.875 17.203125 32.683594 16.519531 32.441406 16.519531 C 32.417969 16.519531 32.398438 16.5 32.398438 16.476562 C 32.398438 16.453125 32.382812 16.445312 32.363281 16.457031 C 32.34375 16.46875 32.300781 16.453125 32.265625 16.421875 C 32.234375 16.386719 32.175781 16.359375 32.144531 16.359375 C 32.109375 16.359375 32.078125 16.34375 32.078125 16.320312 C 32.078125 16.296875 32.027344 16.28125 31.960938 16.28125 C 31.894531 16.28125 31.839844 16.261719 31.839844 16.238281 C 31.839844 16.214844 31.824219 16.207031 31.804688 16.21875 C 31.78125 16.230469 31.738281 16.214844 31.707031 16.179688 C 31.671875 16.148438 31.617188 16.121094 31.582031 16.121094 C 31.546875 16.121094 31.519531 16.101562 31.519531 16.078125 C 31.519531 16.058594 31.464844 16.039062 31.398438 16.039062 C 31.335938 16.039062 31.28125 16.023438 31.28125 16 C 31.28125 15.976562 31.246094 15.960938 31.203125 15.960938 C 31.160156 15.960938 31.113281 15.945312 31.101562 15.925781 C 31.089844 15.90625 31 15.878906 30.902344 15.863281 C 30.800781 15.847656 30.71875 15.816406 30.71875 15.796875 C 30.71875 15.777344 30.691406 15.761719 30.660156 15.761719 C 30.628906 15.761719 30.601562 15.742188 30.601562 15.71875 C 30.601562 15.699219 30.546875 15.679688 30.480469 15.679688 C 30.414062 15.679688 30.359375 15.660156 30.359375 15.640625 C 30.359375 15.617188 30.335938 15.601562 30.308594 15.601562 C 30.234375 15.601562 30.039062 15.507812 30.039062 15.46875 C 30.039062 15.453125 29.984375 15.441406 29.921875 15.441406 C 29.855469 15.441406 29.800781 15.421875 29.800781 15.398438 C 29.800781 15.378906 29.777344 15.359375 29.746094 15.359375 C 29.675781 15.359375 29.480469 15.265625 29.480469 15.230469 C 29.480469 15.214844 29.425781 15.199219 29.359375 15.199219 C 29.292969 15.199219 29.238281 15.183594 29.238281 15.167969 C 29.238281 15.148438 29.175781 15.109375 29.101562 15.078125 C 29.023438 15.050781 28.960938 15.011719 28.960938 14.992188 C 28.960938 14.972656 28.894531 14.960938 28.816406 14.960938 C 28.734375 14.960938 28.683594 14.945312 28.699219 14.921875 C 28.714844 14.898438 28.699219 14.878906 28.667969 14.878906 C 28.632812 14.878906 28.539062 14.84375 28.453125 14.804688 C 28.371094 14.761719 28.25 14.714844 28.191406 14.703125 C 28.132812 14.691406 28.058594 14.652344 28.027344 14.621094 C 27.992188 14.585938 27.9375 14.558594 27.90625 14.558594 C 27.871094 14.558594 27.832031 14.542969 27.820312 14.519531 C 27.804688 14.496094 27.75 14.480469 27.699219 14.480469 C 27.644531 14.480469 27.601562 14.464844 27.601562 14.445312 C 27.601562 14.429688 27.527344 14.390625 27.441406 14.359375 C 27.351562 14.332031 27.28125 14.292969 27.28125 14.277344 C 27.28125 14.265625 27.234375 14.257812 27.179688 14.269531 C 27.121094 14.28125 27.078125 14.269531 27.078125 14.246094 C 27.078125 14.21875 27.042969 14.199219 27 14.199219 C 26.957031 14.199219 26.921875 14.183594 26.921875 14.160156 C 26.921875 14.136719 26.882812 14.121094 26.839844 14.121094 C 26.796875 14.121094 26.761719 14.101562 26.761719 14.078125 C 26.761719 14.058594 26.707031 14.039062 26.640625 14.039062 C 26.574219 14.039062 26.519531 14.023438 26.519531 14 C 26.519531 13.976562 26.484375 13.960938 26.441406 13.960938 C 26.394531 13.960938 26.359375 13.941406 26.359375 13.921875 C 26.359375 13.898438 26.324219 13.878906 26.28125 13.878906 C 26.234375 13.878906 26.199219 13.863281 26.199219 13.839844 C 26.199219 13.816406 26.160156 13.800781 26.109375 13.800781 C 26.003906 13.800781 25.800781 13.714844 25.800781 13.671875 C 25.800781 13.652344 25.773438 13.640625 25.738281 13.640625 C 25.707031 13.640625 25.679688 13.621094 25.679688 13.601562 C 25.679688 13.578125 25.625 13.558594 25.558594 13.558594 C 25.492188 13.558594 25.441406 13.542969 25.441406 13.519531 C 25.441406 13.496094 25.40625 13.480469 25.363281 13.480469 C 25.320312 13.480469 25.273438 13.460938 25.261719 13.441406 C 25.246094 13.417969 25.191406 13.398438 25.136719 13.398438 C 25.082031 13.398438 25.039062 13.382812 25.039062 13.359375 C 25.039062 13.339844 25.003906 13.320312 24.960938 13.320312 C 24.914062 13.320312 24.878906 13.300781 24.878906 13.28125 C 24.878906 13.257812 24.84375 13.238281 24.800781 13.238281 C 24.757812 13.238281 24.71875 13.222656 24.71875 13.199219 C 24.71875 13.179688 24.664062 13.160156 24.601562 13.160156 C 24.535156 13.160156 24.480469 13.140625 24.480469 13.121094 C 24.480469 13.097656 24.445312 13.078125 24.398438 13.078125 C 24.355469 13.078125 24.320312 13.0625 24.320312 13.039062 C 24.320312 13.019531 24.285156 13 24.238281 13 C 24.195312 13 24.160156 12.980469 24.160156 12.960938 C 24.160156 12.9375 24.125 12.921875 24.085938 12.921875 C 24.042969 12.921875 23.90625 12.867188 23.78125 12.800781 C 23.65625 12.734375 23.527344 12.679688 23.496094 12.679688 C 23.464844 12.679688 23.347656 12.636719 23.238281 12.578125 C 23.132812 12.523438 22.996094 12.480469 22.941406 12.480469 C 22.886719 12.480469 22.839844 12.460938 22.839844 12.441406 C 22.839844 12.417969 22.804688 12.398438 22.761719 12.398438 C 22.714844 12.398438 22.679688 12.382812 22.679688 12.359375 C 22.679688 12.339844 22.644531 12.320312 22.601562 12.320312 C 22.554688 12.320312 22.519531 12.300781 22.519531 12.28125 C 22.519531 12.257812 22.476562 12.238281 22.421875 12.238281 C 22.363281 12.238281 22.320312 12.222656 22.320312 12.199219 C 22.320312 12.179688 22.285156 12.160156 22.238281 12.160156 C 22.195312 12.160156 22.160156 12.140625 22.160156 12.121094 C 22.160156 12.097656 22.125 12.078125 22.078125 12.078125 C 22.035156 12.078125 22 12.0625 22 12.039062 C 22 12.019531 21.945312 12 21.878906 12 C 21.8125 12 21.761719 11.980469 21.761719 11.960938 C 21.761719 11.9375 21.722656 11.921875 21.679688 11.921875 C 21.636719 11.921875 21.601562 11.902344 21.601562 11.878906 C 21.601562 11.859375 21.5625 11.839844 21.519531 11.839844 C 21.476562 11.839844 21.441406 11.820312 21.441406 11.800781 C 21.441406 11.777344 21.398438 11.761719 21.347656 11.761719 C 21.242188 11.761719 21.039062 11.675781 21.039062 11.628906 C 21.039062 11.613281 21.003906 11.601562 20.960938 11.601562 C 20.914062 11.601562 20.878906 11.582031 20.878906 11.558594 C 20.878906 11.539062 20.847656 11.519531 20.808594 11.519531 C 20.71875 11.519531 20.519531 11.429688 20.519531 11.390625 C 20.519531 11.375 20.484375 11.359375 20.441406 11.359375 C 20.394531 11.359375 20.359375 11.34375 20.359375 11.320312 C 20.359375 11.296875 20.304688 11.28125 20.238281 11.28125 C 20.175781 11.28125 20.121094 11.261719 20.121094 11.238281 C 20.121094 11.21875 20.085938 11.199219 20.039062 11.199219 C 19.996094 11.199219 19.960938 11.183594 19.960938 11.160156 C 19.960938 11.136719 19.90625 11.121094 19.839844 11.121094 C 19.773438 11.121094 19.71875 11.101562 19.71875 11.078125 C 19.71875 11.054688 19.703125 11.046875 19.683594 11.058594 C 19.664062 11.070312 19.621094 11.054688 19.585938 11.019531 C 19.519531 10.953125 19.121094 10.933594 19.121094 11 M 19.601562 12.558594 C 19.601562 12.582031 19.628906 12.601562 19.660156 12.601562 C 19.691406 12.601562 19.71875 12.617188 19.71875 12.640625 C 19.71875 12.660156 19.757812 12.679688 19.800781 12.679688 C 19.84375 12.679688 19.878906 12.699219 19.878906 12.71875 C 19.878906 12.742188 19.933594 12.761719 20 12.761719 C 20.066406 12.761719 20.121094 12.777344 20.121094 12.800781 C 20.121094 12.820312 20.15625 12.839844 20.199219 12.839844 C 20.242188 12.839844 20.28125 12.859375 20.28125 12.878906 C 20.28125 12.902344 20.335938 12.921875 20.398438 12.921875 C 20.464844 12.921875 20.519531 12.9375 20.519531 12.960938 C 20.519531 12.980469 20.554688 13 20.601562 13 C 20.644531 13 20.679688 13.019531 20.679688 13.039062 C 20.679688 13.0625 20.714844 13.078125 20.761719 13.078125 C 20.804688 13.078125 20.839844 13.097656 20.839844 13.121094 C 20.839844 13.140625 20.886719 13.160156 20.941406 13.160156 C 20.996094 13.160156 21.039062 13.179688 21.039062 13.199219 C 21.039062 13.222656 21.074219 13.238281 21.121094 13.238281 C 21.164062 13.238281 21.199219 13.257812 21.199219 13.28125 C 21.199219 13.300781 21.246094 13.320312 21.300781 13.320312 C 21.359375 13.320312 21.394531 13.335938 21.378906 13.359375 C 21.367188 13.382812 21.40625 13.398438 21.476562 13.398438 C 21.542969 13.398438 21.601562 13.417969 21.601562 13.441406 C 21.601562 13.460938 21.636719 13.480469 21.679688 13.480469 C 21.722656 13.480469 21.761719 13.496094 21.761719 13.519531 C 21.761719 13.542969 21.796875 13.558594 21.839844 13.558594 C 21.882812 13.558594 21.921875 13.578125 21.921875 13.601562 C 21.921875 13.621094 21.960938 13.640625 22.011719 13.640625 C 22.117188 13.640625 22.320312 13.726562 22.320312 13.769531 C 22.320312 13.785156 22.347656 13.800781 22.378906 13.800781 C 22.414062 13.800781 22.472656 13.816406 22.511719 13.835938 C 22.546875 13.855469 22.632812 13.894531 22.699219 13.921875 C 22.765625 13.949219 22.882812 14.003906 22.960938 14.042969 C 23.035156 14.082031 23.167969 14.125 23.25 14.140625 C 23.332031 14.15625 23.398438 14.183594 23.398438 14.203125 C 23.398438 14.222656 23.4375 14.238281 23.480469 14.238281 C 23.523438 14.238281 23.558594 14.257812 23.558594 14.28125 C 23.558594 14.300781 23.613281 14.320312 23.679688 14.320312 C 23.746094 14.320312 23.800781 14.339844 23.800781 14.359375 C 23.800781 14.382812 23.835938 14.398438 23.878906 14.398438 C 23.925781 14.398438 23.960938 14.417969 23.960938 14.441406 C 23.960938 14.460938 23.996094 14.480469 24.039062 14.480469 C 24.085938 14.480469 24.121094 14.496094 24.121094 14.519531 C 24.121094 14.542969 24.164062 14.558594 24.21875 14.558594 C 24.273438 14.558594 24.320312 14.578125 24.320312 14.601562 C 24.320312 14.621094 24.355469 14.640625 24.398438 14.640625 C 24.445312 14.640625 24.480469 14.65625 24.480469 14.679688 C 24.480469 14.703125 24.515625 14.71875 24.558594 14.71875 C 24.601562 14.71875 24.644531 14.738281 24.660156 14.761719 C 24.671875 14.78125 24.730469 14.800781 24.78125 14.800781 C 24.835938 14.800781 24.878906 14.816406 24.878906 14.839844 C 24.878906 14.863281 24.914062 14.878906 24.960938 14.878906 C 25.003906 14.878906 25.039062 14.898438 25.039062 14.921875 C 25.039062 14.941406 25.074219 14.960938 25.121094 14.960938 C 25.164062 14.960938 25.199219 14.976562 25.199219 15 C 25.199219 15.023438 25.253906 15.039062 25.320312 15.039062 C 25.386719 15.039062 25.441406 15.058594 25.441406 15.078125 C 25.441406 15.101562 25.476562 15.121094 25.519531 15.121094 C 25.5625 15.121094 25.601562 15.136719 25.601562 15.160156 C 25.601562 15.183594 25.636719 15.199219 25.679688 15.199219 C 25.722656 15.199219 25.761719 15.21875 25.761719 15.238281 C 25.761719 15.261719 25.816406 15.28125 25.882812 15.28125 C 25.953125 15.28125 25.996094 15.296875 25.980469 15.320312 C 25.964844 15.34375 26 15.359375 26.058594 15.359375 C 26.121094 15.359375 26.152344 15.378906 26.140625 15.398438 C 26.125 15.421875 26.167969 15.441406 26.238281 15.441406 C 26.304688 15.441406 26.359375 15.457031 26.359375 15.480469 C 26.359375 15.503906 26.394531 15.519531 26.441406 15.519531 C 26.484375 15.519531 26.519531 15.539062 26.519531 15.558594 C 26.519531 15.582031 26.554688 15.601562 26.597656 15.601562 C 26.640625 15.601562 26.6875 15.617188 26.699219 15.640625 C 26.714844 15.660156 26.769531 15.679688 26.820312 15.679688 C 26.871094 15.679688 26.925781 15.695312 26.9375 15.71875 C 26.953125 15.738281 26.988281 15.746094 27.019531 15.734375 C 27.054688 15.722656 27.078125 15.730469 27.078125 15.753906 C 27.078125 15.78125 27.117188 15.800781 27.160156 15.800781 C 27.203125 15.800781 27.238281 15.816406 27.238281 15.839844 C 27.238281 15.863281 27.292969 15.878906 27.359375 15.878906 C 27.425781 15.878906 27.480469 15.898438 27.480469 15.921875 C 27.480469 15.941406 27.507812 15.960938 27.539062 15.960938 C 27.574219 15.960938 27.601562 15.976562 27.601562 16 C 27.601562 16.023438 27.644531 16.039062 27.699219 16.039062 C 27.753906 16.039062 27.800781 16.058594 27.800781 16.078125 C 27.800781 16.101562 27.84375 16.121094 27.898438 16.121094 C 27.953125 16.121094 28 16.136719 28 16.160156 C 28 16.183594 28.035156 16.199219 28.078125 16.199219 C 28.125 16.199219 28.160156 16.21875 28.160156 16.238281 C 28.160156 16.261719 28.195312 16.28125 28.238281 16.28125 C 28.285156 16.28125 28.320312 16.296875 28.320312 16.320312 C 28.320312 16.34375 28.375 16.359375 28.441406 16.359375 C 28.507812 16.359375 28.558594 16.378906 28.558594 16.398438 C 28.558594 16.421875 28.597656 16.441406 28.640625 16.441406 C 28.683594 16.441406 28.71875 16.457031 28.71875 16.480469 C 28.71875 16.503906 28.757812 16.519531 28.800781 16.519531 C 28.84375 16.519531 28.878906 16.539062 28.878906 16.558594 C 28.878906 16.582031 28.929688 16.601562 28.992188 16.601562 C 29.054688 16.601562 29.140625 16.632812 29.183594 16.671875 C 29.226562 16.707031 29.296875 16.746094 29.339844 16.753906 C 29.382812 16.761719 29.425781 16.785156 29.433594 16.804688 C 29.441406 16.824219 29.5 16.839844 29.5625 16.839844 C 29.628906 16.839844 29.679688 16.859375 29.679688 16.878906 C 29.679688 16.902344 29.707031 16.921875 29.738281 16.921875 C 29.773438 16.921875 29.800781 16.9375 29.800781 16.960938 C 29.800781 16.980469 29.835938 17 29.878906 17 C 29.921875 17 29.964844 17.019531 29.980469 17.039062 C 29.992188 17.0625 30.046875 17.078125 30.101562 17.078125 C 30.15625 17.078125 30.199219 17.089844 30.199219 17.101562 C 30.199219 17.148438 30.082031 17.238281 30.023438 17.238281 C 29.988281 17.238281 29.960938 17.257812 29.960938 17.28125 C 29.960938 17.300781 29.925781 17.320312 29.878906 17.320312 C 29.835938 17.320312 29.800781 17.339844 29.800781 17.359375 C 29.800781 17.382812 29.753906 17.398438 29.699219 17.398438 C 29.644531 17.398438 29.601562 17.417969 29.601562 17.4375 C 29.601562 17.457031 29.527344 17.484375 29.441406 17.5 C 29.351562 17.515625 29.269531 17.542969 29.257812 17.5625 C 29.246094 17.582031 29.191406 17.601562 29.136719 17.601562 C 29.082031 17.601562 29.039062 17.617188 29.039062 17.640625 C 29.039062 17.660156 29.019531 17.679688 28.992188 17.679688 C 28.914062 17.679688 28.480469 17.46875 28.480469 17.433594 C 28.480469 17.414062 28.445312 17.398438 28.398438 17.398438 C 28.355469 17.398438 28.320312 17.382812 28.320312 17.359375 C 28.320312 17.339844 28.285156 17.320312 28.238281 17.320312 C 28.195312 17.320312 28.160156 17.300781 28.160156 17.28125 C 28.160156 17.257812 28.125 17.238281 28.078125 17.238281 C 28.035156 17.238281 28 17.222656 28 17.199219 C 28 17.179688 27.964844 17.160156 27.921875 17.160156 C 27.875 17.160156 27.839844 17.140625 27.839844 17.121094 C 27.839844 17.097656 27.785156 17.078125 27.71875 17.078125 C 27.652344 17.078125 27.601562 17.066406 27.601562 17.050781 C 27.597656 17.015625 27.40625 16.921875 27.339844 16.921875 C 27.273438 16.921875 27.082031 16.824219 27.082031 16.789062 C 27.082031 16.773438 27.027344 16.761719 26.960938 16.761719 C 26.894531 16.761719 26.839844 16.742188 26.839844 16.71875 C 26.839844 16.699219 26.785156 16.679688 26.71875 16.679688 C 26.652344 16.679688 26.601562 16.660156 26.601562 16.640625 C 26.601562 16.617188 26.546875 16.601562 26.480469 16.601562 C 26.414062 16.601562 26.359375 16.582031 26.359375 16.558594 C 26.359375 16.539062 26.289062 16.519531 26.203125 16.519531 C 26.117188 16.519531 26.035156 16.503906 26.019531 16.480469 C 26.007812 16.457031 25.953125 16.441406 25.898438 16.441406 C 25.847656 16.441406 25.792969 16.421875 25.78125 16.398438 C 25.765625 16.378906 25.683594 16.359375 25.601562 16.359375 C 25.515625 16.359375 25.433594 16.34375 25.421875 16.320312 C 25.40625 16.296875 25.332031 16.28125 25.257812 16.28125 C 25.183594 16.28125 25.121094 16.265625 25.121094 16.242188 C 25.121094 16.222656 25.027344 16.199219 24.910156 16.183594 C 24.40625 16.132812 24.296875 16.113281 24.214844 16.074219 C 24.167969 16.050781 24.046875 16.039062 23.949219 16.046875 C 23.847656 16.054688 23.773438 16.046875 23.785156 16.035156 C 23.8125 15.984375 23.671875 15.960938 23.378906 15.960938 C 23.21875 15.960938 23.082031 15.941406 23.074219 15.917969 C 23.058594 15.871094 20.117188 15.8125 19.835938 15.855469 C 19.707031 15.875 19.601562 15.925781 19.488281 16.027344 L 19.320312 16.171875 L 19.320312 16.515625 C 19.324219 16.886719 19.328125 16.902344 19.570312 17.109375 L 19.722656 17.238281 L 20.863281 17.238281 C 21.59375 17.238281 22 17.253906 22 17.28125 C 22 17.304688 22.175781 17.320312 22.453125 17.320312 C 22.699219 17.320312 22.921875 17.335938 22.941406 17.355469 C 22.964844 17.378906 23.113281 17.402344 23.28125 17.414062 C 23.773438 17.449219 24.472656 17.539062 24.503906 17.570312 C 24.519531 17.585938 24.609375 17.601562 24.707031 17.601562 C 24.800781 17.601562 24.878906 17.617188 24.878906 17.640625 C 24.878906 17.660156 24.953125 17.679688 25.039062 17.679688 C 25.128906 17.679688 25.199219 17.699219 25.199219 17.71875 C 25.199219 17.742188 25.273438 17.761719 25.359375 17.761719 C 25.449219 17.761719 25.519531 17.777344 25.519531 17.800781 C 25.519531 17.820312 25.574219 17.839844 25.640625 17.839844 C 25.707031 17.839844 25.761719 17.859375 25.761719 17.878906 C 25.761719 17.902344 25.824219 17.921875 25.898438 17.921875 C 25.976562 17.921875 26.039062 17.9375 26.039062 17.960938 C 26.039062 17.980469 26.082031 18 26.132812 18 C 26.238281 18 26.4375 18.085938 26.441406 18.128906 C 26.441406 18.148438 26.492188 18.160156 26.558594 18.160156 C 26.625 18.160156 26.679688 18.179688 26.679688 18.199219 C 26.679688 18.222656 26.734375 18.238281 26.800781 18.238281 C 26.867188 18.238281 26.921875 18.257812 26.921875 18.28125 C 26.921875 18.300781 26.957031 18.320312 27 18.320312 C 27.042969 18.320312 27.078125 18.339844 27.078125 18.359375 C 27.078125 18.382812 27.117188 18.398438 27.160156 18.398438 C 27.203125 18.398438 27.238281 18.417969 27.238281 18.441406 C 27.238281 18.460938 27.1875 18.480469 27.121094 18.480469 C 27.054688 18.480469 27 18.496094 27 18.519531 C 27 18.542969 26.964844 18.558594 26.921875 18.558594 C 26.875 18.558594 26.839844 18.578125 26.839844 18.601562 C 26.839844 18.621094 26.804688 18.640625 26.761719 18.640625 C 26.714844 18.640625 26.679688 18.65625 26.679688 18.679688 C 26.679688 18.703125 26.625 18.71875 26.558594 18.71875 C 26.492188 18.71875 26.441406 18.738281 26.441406 18.761719 C 26.441406 18.78125 26.414062 18.800781 26.378906 18.800781 C 26.347656 18.800781 26.320312 18.816406 26.320312 18.839844 C 26.320312 18.863281 26.277344 18.878906 26.222656 18.878906 C 26.128906 18.878906 25.792969 19.035156 25.765625 19.089844 C 25.757812 19.105469 25.699219 19.121094 25.636719 19.121094 C 25.574219 19.121094 25.519531 19.136719 25.519531 19.160156 C 25.519531 19.183594 25.484375 19.199219 25.441406 19.199219 C 25.394531 19.199219 25.359375 19.21875 25.359375 19.246094 C 25.359375 19.269531 25.332031 19.277344 25.300781 19.265625 C 25.269531 19.253906 25.230469 19.261719 25.21875 19.28125 C 25.207031 19.304688 25.152344 19.320312 25.101562 19.320312 C 25.046875 19.320312 24.992188 19.339844 24.980469 19.359375 C 24.964844 19.382812 24.921875 19.398438 24.878906 19.398438 C 24.835938 19.398438 24.800781 19.417969 24.800781 19.441406 C 24.800781 19.460938 24.765625 19.480469 24.71875 19.480469 C 24.675781 19.480469 24.640625 19.496094 24.640625 19.519531 C 24.640625 19.542969 24.59375 19.558594 24.539062 19.558594 C 24.484375 19.558594 24.441406 19.574219 24.441406 19.59375 C 24.441406 19.613281 24.367188 19.652344 24.28125 19.679688 C 24.191406 19.710938 24.121094 19.746094 24.121094 19.765625 C 24.121094 19.785156 24.066406 19.800781 24 19.800781 C 23.933594 19.800781 23.878906 19.816406 23.878906 19.839844 C 23.878906 19.863281 23.84375 19.878906 23.800781 19.878906 C 23.757812 19.878906 23.71875 19.898438 23.71875 19.921875 C 23.71875 19.941406 23.664062 19.960938 23.601562 19.960938 C 23.535156 19.960938 23.480469 19.976562 23.480469 20 C 23.480469 20.023438 23.445312 20.039062 23.398438 20.039062 C 23.355469 20.039062 23.320312 20.058594 23.320312 20.078125 C 23.320312 20.101562 23.285156 20.121094 23.238281 20.121094 C 23.195312 20.121094 23.160156 20.136719 23.160156 20.160156 C 23.160156 20.183594 23.109375 20.199219 23.042969 20.199219 C 22.980469 20.199219 22.921875 20.214844 22.914062 20.230469 C 22.890625 20.28125 22.558594 20.441406 22.476562 20.441406 C 22.433594 20.441406 22.398438 20.457031 22.398438 20.480469 C 22.398438 20.503906 22.363281 20.519531 22.320312 20.519531 C 22.277344 20.519531 22.238281 20.539062 22.238281 20.558594 C 22.238281 20.582031 22.203125 20.601562 22.160156 20.601562 C 22.117188 20.601562 22.078125 20.617188 22.078125 20.640625 C 22.078125 20.660156 22.027344 20.679688 21.960938 20.679688 C 21.894531 20.679688 21.839844 20.695312 21.839844 20.710938 C 21.839844 20.746094 21.691406 20.808594 21.390625 20.902344 C 21.261719 20.941406 21.148438 20.988281 21.136719 21.007812 C 21.125 21.023438 21.074219 21.039062 21.027344 21.039062 C 20.980469 21.042969 20.894531 21.078125 20.839844 21.121094 C 20.785156 21.164062 20.707031 21.199219 20.671875 21.199219 C 20.632812 21.199219 20.601562 21.21875 20.601562 21.238281 C 20.601562 21.261719 20.546875 21.28125 20.480469 21.28125 C 20.414062 21.28125 20.359375 21.296875 20.359375 21.320312 C 20.359375 21.34375 20.324219 21.359375 20.28125 21.359375 C 20.234375 21.359375 20.199219 21.378906 20.199219 21.398438 C 20.199219 21.421875 20.164062 21.441406 20.121094 21.441406 C 20.074219 21.441406 20.039062 21.421875 20.039062 21.398438 C 20.039062 21.378906 20.003906 21.359375 19.960938 21.359375 C 19.917969 21.359375 19.875 21.34375 19.859375 21.320312 C 19.847656 21.296875 19.792969 21.28125 19.738281 21.28125 C 19.683594 21.28125 19.640625 21.261719 19.640625 21.238281 C 19.640625 21.214844 19.625 21.207031 19.601562 21.21875 C 19.582031 21.230469 19.539062 21.214844 19.507812 21.179688 C 19.472656 21.148438 19.402344 21.121094 19.351562 21.117188 C 19.300781 21.117188 19.214844 21.082031 19.160156 21.039062 C 19.105469 20.996094 19.03125 20.960938 18.996094 20.960938 C 18.957031 20.960938 18.878906 20.933594 18.816406 20.898438 C 18.75 20.867188 18.667969 20.839844 18.628906 20.839844 C 18.589844 20.839844 18.558594 20.820312 18.558594 20.800781 C 18.558594 20.777344 18.507812 20.761719 18.441406 20.761719 C 18.375 20.761719 18.320312 20.742188 18.320312 20.71875 C 18.320312 20.699219 18.285156 20.679688 18.238281 20.679688 C 18.195312 20.679688 18.160156 20.660156 18.160156 20.640625 C 18.160156 20.617188 18.105469 20.601562 18.039062 20.601562 C 17.972656 20.601562 17.921875 20.582031 17.921875 20.558594 C 17.921875 20.539062 17.882812 20.519531 17.839844 20.519531 C 17.796875 20.519531 17.761719 20.503906 17.761719 20.480469 C 17.761719 20.457031 17.707031 20.441406 17.644531 20.441406 C 17.578125 20.441406 17.519531 20.425781 17.511719 20.410156 C 17.496094 20.371094 17.164062 20.199219 17.105469 20.199219 C 17.035156 20.199219 16.839844 20.105469 16.839844 20.070312 C 16.839844 20.054688 16.785156 20.039062 16.71875 20.039062 C 16.652344 20.039062 16.601562 20.023438 16.601562 20 C 16.601562 19.976562 16.5625 19.960938 16.519531 19.960938 C 16.476562 19.960938 16.441406 19.941406 16.441406 19.921875 C 16.441406 19.898438 16.386719 19.878906 16.320312 19.878906 C 16.253906 19.878906 16.199219 19.863281 16.199219 19.839844 C 16.199219 19.816406 16.164062 19.800781 16.121094 19.800781 C 16.074219 19.800781 16.039062 19.78125 16.039062 19.761719 C 16.039062 19.738281 15.984375 19.71875 15.921875 19.71875 C 15.855469 19.71875 15.800781 19.703125 15.800781 19.679688 C 15.800781 19.65625 15.761719 19.640625 15.71875 19.640625 C 15.671875 19.640625 15.644531 19.621094 15.660156 19.601562 C 15.671875 19.578125 15.648438 19.558594 15.601562 19.558594 C 15.558594 19.558594 15.519531 19.542969 15.519531 19.519531 C 15.519531 19.496094 15.480469 19.480469 15.429688 19.480469 C 15.320312 19.480469 15.121094 19.394531 15.121094 19.347656 C 15.121094 19.328125 15.101562 19.324219 15.082031 19.339844 C 15.0625 19.351562 14.996094 19.339844 14.933594 19.3125 C 14.871094 19.289062 14.796875 19.269531 14.769531 19.273438 C 14.742188 19.28125 14.71875 19.265625 14.71875 19.242188 C 14.71875 19.21875 14.664062 19.199219 14.601562 19.199219 C 14.535156 19.199219 14.480469 19.183594 14.480469 19.160156 C 14.480469 19.136719 14.445312 19.121094 14.398438 19.121094 C 14.355469 19.121094 14.320312 19.101562 14.320312 19.078125 C 14.320312 19.058594 14.285156 19.039062 14.242188 19.039062 C 14.203125 19.039062 14.066406 18.984375 13.941406 18.921875 C 13.816406 18.855469 13.675781 18.800781 13.636719 18.800781 C 13.59375 18.800781 13.558594 18.78125 13.558594 18.761719 C 13.558594 18.738281 13.523438 18.71875 13.480469 18.71875 C 13.4375 18.71875 13.398438 18.703125 13.398438 18.679688 C 13.398438 18.65625 13.347656 18.640625 13.28125 18.640625 C 13.214844 18.640625 13.160156 18.621094 13.160156 18.601562 C 13.160156 18.578125 13.125 18.558594 13.078125 18.558594 C 13.035156 18.558594 13 18.542969 13 18.519531 C 13 18.496094 12.945312 18.480469 12.878906 18.480469 C 12.8125 18.480469 12.761719 18.460938 12.761719 18.441406 C 12.761719 18.417969 12.722656 18.398438 12.679688 18.398438 C 12.636719 18.398438 12.601562 18.382812 12.601562 18.359375 C 12.601562 18.339844 12.5625 18.320312 12.519531 18.320312 C 12.476562 18.320312 12.441406 18.300781 12.441406 18.28125 C 12.441406 18.257812 12.40625 18.238281 12.367188 18.238281 C 12.277344 18.238281 12.082031 18.152344 12.082031 18.109375 C 12.082031 18.09375 12.046875 18.078125 12.003906 18.078125 C 11.960938 18.078125 11.914062 18.0625 11.898438 18.039062 C 11.886719 18.019531 11.832031 18 11.777344 18 C 11.722656 18 11.679688 17.980469 11.679688 17.960938 C 11.679688 17.9375 11.652344 17.921875 11.621094 17.921875 C 11.589844 17.921875 11.5 17.882812 11.421875 17.839844 C 11.339844 17.796875 11.242188 17.761719 11.199219 17.761719 C 11.15625 17.761719 11.121094 17.742188 11.121094 17.71875 C 11.121094 17.699219 11.085938 17.679688 11.039062 17.679688 C 10.996094 17.679688 10.960938 17.660156 10.960938 17.640625 C 10.960938 17.617188 10.917969 17.601562 10.863281 17.601562 C 10.808594 17.601562 10.753906 17.582031 10.742188 17.5625 C 10.730469 17.542969 10.648438 17.515625 10.558594 17.5 C 10.472656 17.484375 10.398438 17.457031 10.398438 17.4375 C 10.398438 17.417969 10.355469 17.398438 10.300781 17.398438 C 10.246094 17.398438 10.199219 17.382812 10.199219 17.359375 C 10.199219 17.339844 10.164062 17.320312 10.121094 17.320312 C 10.074219 17.320312 10.039062 17.300781 10.039062 17.28125 C 10.039062 17.257812 10.003906 17.238281 9.960938 17.238281 C 9.914062 17.238281 9.878906 17.222656 9.878906 17.199219 C 9.878906 17.179688 9.824219 17.160156 9.761719 17.160156 C 9.695312 17.160156 9.640625 17.140625 9.640625 17.121094 C 9.640625 17.097656 9.667969 17.078125 9.703125 17.078125 C 9.738281 17.078125 9.792969 17.054688 9.824219 17.019531 C 9.859375 16.988281 9.902344 16.96875 9.921875 16.980469 C 9.945312 16.996094 9.960938 16.984375 9.960938 16.960938 C 9.960938 16.9375 9.996094 16.921875 10.039062 16.921875 C 10.085938 16.921875 10.121094 16.902344 10.121094 16.878906 C 10.121094 16.859375 10.175781 16.839844 10.238281 16.839844 C 10.304688 16.839844 10.359375 16.820312 10.359375 16.800781 C 10.359375 16.777344 10.394531 16.761719 10.441406 16.761719 C 10.484375 16.761719 10.519531 16.746094 10.519531 16.726562 C 10.519531 16.710938 10.582031 16.671875 10.660156 16.640625 C 10.738281 16.609375 10.800781 16.570312 10.800781 16.550781 C 10.800781 16.535156 10.835938 16.519531 10.878906 16.519531 C 10.925781 16.519531 10.960938 16.503906 10.960938 16.480469 C 10.960938 16.457031 10.996094 16.441406 11.039062 16.441406 C 11.085938 16.441406 11.121094 16.421875 11.121094 16.398438 C 11.121094 16.378906 11.15625 16.359375 11.199219 16.359375 C 11.242188 16.359375 11.28125 16.34375 11.28125 16.320312 C 11.28125 16.296875 11.316406 16.28125 11.359375 16.28125 C 11.402344 16.28125 11.441406 16.261719 11.441406 16.238281 C 11.441406 16.21875 11.476562 16.199219 11.519531 16.199219 C 11.5625 16.199219 11.601562 16.183594 11.601562 16.160156 C 11.601562 16.136719 11.636719 16.121094 11.679688 16.121094 C 11.722656 16.121094 11.761719 16.101562 11.761719 16.078125 C 11.761719 16.058594 11.8125 16.039062 11.878906 16.039062 C 11.945312 16.039062 12 16.027344 12 16.007812 C 12 15.972656 12.3125 15.824219 12.390625 15.820312 C 12.421875 15.820312 12.457031 15.800781 12.472656 15.773438 C 12.5 15.730469 12.628906 15.679688 12.695312 15.683594 C 12.714844 15.683594 12.742188 15.671875 12.753906 15.652344 C 12.792969 15.601562 12.953125 15.519531 13.019531 15.519531 C 13.054688 15.519531 13.078125 15.503906 13.078125 15.480469 C 13.078125 15.457031 13.117188 15.441406 13.160156 15.441406 C 13.203125 15.441406 13.238281 15.421875 13.238281 15.398438 C 13.238281 15.378906 13.277344 15.359375 13.320312 15.359375 C 13.363281 15.359375 13.398438 15.34375 13.398438 15.320312 C 13.398438 15.296875 13.445312 15.28125 13.496094 15.28125 C 13.550781 15.28125 13.605469 15.261719 13.621094 15.238281 C 13.632812 15.21875 13.679688 15.199219 13.722656 15.199219 C 13.765625 15.199219 13.800781 15.183594 13.800781 15.167969 C 13.800781 15.132812 13.882812 15.085938 14.109375 14.992188 C 14.179688 14.964844 14.238281 14.925781 14.238281 14.910156 C 14.238281 14.894531 14.277344 14.878906 14.320312 14.878906 C 14.363281 14.878906 14.398438 14.867188 14.398438 14.851562 C 14.402344 14.8125 14.59375 14.71875 14.667969 14.71875 C 14.695312 14.71875 14.71875 14.703125 14.71875 14.679688 C 14.71875 14.65625 14.757812 14.640625 14.800781 14.640625 C 14.84375 14.640625 14.878906 14.621094 14.878906 14.601562 C 14.878906 14.578125 14.914062 14.558594 14.960938 14.558594 C 15.003906 14.558594 15.039062 14.542969 15.039062 14.519531 C 15.039062 14.496094 15.09375 14.480469 15.160156 14.480469 C 15.226562 14.480469 15.28125 14.464844 15.28125 14.449219 C 15.28125 14.414062 15.472656 14.320312 15.546875 14.320312 C 15.578125 14.320312 15.601562 14.300781 15.601562 14.28125 C 15.601562 14.257812 15.628906 14.238281 15.660156 14.238281 C 15.691406 14.238281 15.71875 14.222656 15.71875 14.199219 C 15.71875 14.179688 15.75 14.160156 15.789062 14.160156 C 15.828125 14.160156 15.949219 14.113281 16.058594 14.058594 C 16.164062 14.003906 16.277344 13.960938 16.308594 13.960938 C 16.335938 13.960938 16.359375 13.945312 16.359375 13.929688 C 16.359375 13.894531 16.554688 13.800781 16.628906 13.800781 C 16.65625 13.800781 16.679688 13.78125 16.679688 13.761719 C 16.679688 13.738281 16.734375 13.71875 16.800781 13.71875 C 16.867188 13.71875 16.921875 13.703125 16.921875 13.679688 C 16.921875 13.65625 16.957031 13.640625 17.003906 13.640625 C 17.046875 13.640625 17.074219 13.621094 17.058594 13.601562 C 17.046875 13.578125 17.082031 13.558594 17.140625 13.558594 C 17.199219 13.558594 17.234375 13.542969 17.21875 13.519531 C 17.207031 13.496094 17.21875 13.480469 17.25 13.480469 C 17.324219 13.480469 17.519531 13.386719 17.519531 13.351562 C 17.519531 13.332031 17.554688 13.320312 17.601562 13.320312 C 17.644531 13.320312 17.679688 13.300781 17.679688 13.28125 C 17.679688 13.257812 17.714844 13.238281 17.761719 13.238281 C 17.804688 13.238281 17.839844 13.222656 17.839844 13.199219 C 17.839844 13.179688 17.875 13.160156 17.921875 13.160156 C 17.964844 13.160156 18 13.148438 18 13.128906 C 18 13.09375 18.195312 13 18.269531 13 C 18.296875 13 18.320312 12.980469 18.320312 12.960938 C 18.320312 12.9375 18.375 12.921875 18.441406 12.921875 C 18.507812 12.921875 18.558594 12.902344 18.558594 12.878906 C 18.558594 12.859375 18.585938 12.839844 18.621094 12.839844 C 18.652344 12.839844 18.679688 12.820312 18.679688 12.800781 C 18.679688 12.777344 18.726562 12.761719 18.78125 12.761719 C 18.839844 12.761719 18.875 12.742188 18.859375 12.71875 C 18.847656 12.699219 18.878906 12.679688 18.9375 12.679688 C 18.992188 12.679688 19.039062 12.660156 19.039062 12.640625 C 19.039062 12.617188 19.066406 12.601562 19.101562 12.601562 C 19.132812 12.601562 19.160156 12.582031 19.160156 12.558594 C 19.160156 12.539062 19.257812 12.519531 19.378906 12.519531 C 19.5 12.519531 19.601562 12.539062 19.601562 12.558594 M 27.160156 23.820312 L 27.160156 27.601562 L 13.398438 27.601562 L 13.398438 23.941406 C 13.398438 20.824219 13.410156 20.28125 13.457031 20.28125 C 13.523438 20.28125 13.855469 20.445312 13.875 20.488281 C 13.878906 20.507812 13.929688 20.519531 13.980469 20.519531 C 14.074219 20.519531 14.367188 20.667969 14.394531 20.726562 C 14.398438 20.742188 14.457031 20.746094 14.523438 20.734375 C 14.597656 20.71875 14.640625 20.726562 14.640625 20.753906 C 14.640625 20.78125 14.675781 20.800781 14.71875 20.800781 C 14.765625 20.800781 14.800781 20.816406 14.800781 20.839844 C 14.800781 20.863281 14.835938 20.878906 14.878906 20.878906 C 14.925781 20.878906 14.960938 20.898438 14.960938 20.921875 C 14.960938 20.941406 15.015625 20.960938 15.078125 20.960938 C 15.144531 20.960938 15.199219 20.976562 15.199219 21 C 15.199219 21.023438 15.234375 21.039062 15.28125 21.039062 C 15.324219 21.039062 15.359375 21.058594 15.359375 21.078125 C 15.359375 21.101562 15.414062 21.121094 15.480469 21.121094 C 15.546875 21.121094 15.601562 21.136719 15.601562 21.160156 C 15.601562 21.183594 15.636719 21.199219 15.679688 21.199219 C 15.722656 21.199219 15.761719 21.21875 15.761719 21.238281 C 15.761719 21.261719 15.796875 21.28125 15.84375 21.28125 C 15.886719 21.28125 15.914062 21.296875 15.898438 21.320312 C 15.886719 21.34375 15.925781 21.359375 15.996094 21.359375 C 16.066406 21.359375 16.121094 21.378906 16.121094 21.398438 C 16.121094 21.421875 16.15625 21.441406 16.199219 21.441406 C 16.242188 21.441406 16.28125 21.457031 16.28125 21.480469 C 16.28125 21.503906 16.316406 21.519531 16.359375 21.519531 C 16.402344 21.519531 16.441406 21.539062 16.441406 21.558594 C 16.441406 21.582031 16.492188 21.601562 16.558594 21.601562 C 16.625 21.601562 16.679688 21.617188 16.679688 21.640625 C 16.679688 21.660156 16.714844 21.679688 16.761719 21.679688 C 16.804688 21.679688 16.839844 21.699219 16.839844 21.71875 C 16.839844 21.742188 16.875 21.761719 16.921875 21.761719 C 16.964844 21.761719 17 21.777344 17 21.800781 C 17 21.820312 17.054688 21.839844 17.121094 21.839844 C 17.1875 21.839844 17.238281 21.859375 17.238281 21.878906 C 17.238281 21.902344 17.277344 21.921875 17.320312 21.921875 C 17.363281 21.921875 17.398438 21.9375 17.398438 21.960938 C 17.398438 21.980469 17.4375 22 17.480469 22 C 17.523438 22 17.558594 22.019531 17.558594 22.039062 C 17.558594 22.0625 17.597656 22.078125 17.640625 22.078125 C 17.71875 22.078125 17.757812 22.09375 17.949219 22.195312 C 18 22.21875 18.066406 22.238281 18.097656 22.238281 C 18.132812 22.238281 18.160156 22.257812 18.160156 22.28125 C 18.160156 22.300781 18.1875 22.320312 18.222656 22.320312 C 18.253906 22.320312 18.351562 22.355469 18.433594 22.398438 C 18.515625 22.4375 18.652344 22.484375 18.730469 22.5 C 18.8125 22.515625 18.878906 22.542969 18.878906 22.566406 C 18.878906 22.585938 18.914062 22.601562 18.960938 22.601562 C 19.003906 22.601562 19.039062 22.617188 19.039062 22.640625 C 19.039062 22.660156 19.085938 22.679688 19.140625 22.679688 C 19.195312 22.679688 19.238281 22.699219 19.238281 22.71875 C 19.238281 22.742188 19.277344 22.761719 19.320312 22.761719 C 19.363281 22.761719 19.398438 22.777344 19.398438 22.800781 C 19.398438 22.820312 19.4375 22.839844 19.480469 22.839844 C 19.523438 22.839844 19.558594 22.859375 19.558594 22.878906 C 19.558594 22.902344 19.613281 22.921875 19.679688 22.921875 C 19.746094 22.921875 19.800781 22.9375 19.800781 22.960938 C 19.800781 22.984375 19.933594 23 20.121094 23 C 20.308594 23 20.441406 22.984375 20.441406 22.960938 C 20.441406 22.9375 20.492188 22.921875 20.558594 22.921875 C 20.625 22.921875 20.679688 22.902344 20.679688 22.878906 C 20.679688 22.859375 20.707031 22.839844 20.738281 22.839844 C 20.773438 22.839844 20.800781 22.820312 20.800781 22.800781 C 20.800781 22.777344 20.855469 22.761719 20.921875 22.761719 C 20.984375 22.761719 21.039062 22.742188 21.039062 22.71875 C 21.039062 22.699219 21.074219 22.679688 21.121094 22.679688 C 21.164062 22.679688 21.199219 22.660156 21.199219 22.640625 C 21.199219 22.617188 21.234375 22.601562 21.28125 22.601562 C 21.324219 22.601562 21.359375 22.582031 21.359375 22.558594 C 21.359375 22.539062 21.386719 22.519531 21.414062 22.519531 C 21.484375 22.519531 21.894531 22.390625 21.921875 22.363281 C 21.96875 22.308594 22.292969 22.160156 22.363281 22.160156 C 22.40625 22.160156 22.441406 22.140625 22.441406 22.121094 C 22.441406 22.097656 22.476562 22.078125 22.519531 22.078125 C 22.5625 22.078125 22.601562 22.0625 22.601562 22.039062 C 22.601562 22.019531 22.636719 22 22.679688 22 C 22.722656 22 22.761719 21.980469 22.761719 21.960938 C 22.761719 21.9375 22.8125 21.921875 22.878906 21.921875 C 22.945312 21.921875 23 21.902344 23 21.878906 C 23 21.859375 23.035156 21.839844 23.078125 21.839844 C 23.125 21.839844 23.160156 21.820312 23.160156 21.800781 C 23.160156 21.777344 23.195312 21.761719 23.238281 21.761719 C 23.285156 21.761719 23.320312 21.742188 23.320312 21.71875 C 23.320312 21.699219 23.355469 21.679688 23.398438 21.679688 C 23.445312 21.679688 23.480469 21.660156 23.480469 21.640625 C 23.480469 21.617188 23.535156 21.601562 23.601562 21.601562 C 23.664062 21.601562 23.71875 21.585938 23.71875 21.570312 C 23.71875 21.535156 23.914062 21.441406 23.992188 21.441406 C 24.019531 21.441406 24.035156 21.421875 24.019531 21.398438 C 24.003906 21.375 24.046875 21.359375 24.117188 21.359375 C 24.183594 21.359375 24.238281 21.34375 24.238281 21.320312 C 24.238281 21.296875 24.277344 21.28125 24.320312 21.28125 C 24.363281 21.28125 24.398438 21.261719 24.398438 21.238281 C 24.398438 21.21875 24.4375 21.199219 24.480469 21.199219 C 24.523438 21.199219 24.558594 21.183594 24.558594 21.160156 C 24.558594 21.136719 24.597656 21.121094 24.640625 21.121094 C 24.683594 21.121094 24.71875 21.101562 24.71875 21.078125 C 24.71875 21.058594 24.773438 21.039062 24.839844 21.039062 C 24.90625 21.039062 24.960938 21.027344 24.960938 21.011719 C 24.960938 20.972656 25.15625 20.878906 25.226562 20.878906 C 25.257812 20.878906 25.28125 20.859375 25.28125 20.835938 C 25.28125 20.808594 25.320312 20.796875 25.382812 20.808594 C 25.449219 20.824219 25.492188 20.808594 25.507812 20.773438 C 25.519531 20.742188 25.554688 20.726562 25.585938 20.738281 C 25.617188 20.746094 25.640625 20.738281 25.640625 20.71875 C 25.640625 20.699219 25.664062 20.679688 25.691406 20.679688 C 25.765625 20.679688 25.960938 20.585938 25.960938 20.550781 C 25.960938 20.535156 26.007812 20.519531 26.0625 20.519531 C 26.121094 20.519531 26.191406 20.492188 26.226562 20.460938 C 26.257812 20.425781 26.304688 20.410156 26.324219 20.421875 C 26.34375 20.433594 26.359375 20.425781 26.359375 20.402344 C 26.359375 20.378906 26.394531 20.359375 26.441406 20.359375 C 26.484375 20.359375 26.519531 20.34375 26.519531 20.320312 C 26.519531 20.296875 26.554688 20.28125 26.601562 20.28125 C 26.644531 20.28125 26.679688 20.261719 26.679688 20.238281 C 26.679688 20.21875 26.734375 20.199219 26.800781 20.199219 C 26.875 20.199219 26.914062 20.183594 26.898438 20.160156 C 26.886719 20.136719 26.910156 20.121094 26.957031 20.121094 C 27 20.121094 27.046875 20.101562 27.058594 20.078125 C 27.148438 19.933594 27.160156 20.296875 27.160156 23.820312 M 30.980469 26.398438 C 30.992188 26.421875 30.96875 26.441406 30.921875 26.441406 C 30.878906 26.441406 30.839844 26.457031 30.839844 26.480469 C 30.839844 26.503906 30.8125 26.519531 30.777344 26.519531 C 30.707031 26.519531 30.523438 26.714844 30.519531 26.789062 C 30.519531 26.816406 30.503906 26.839844 30.480469 26.839844 C 30.394531 26.839844 30.429688 27.578125 30.519531 27.640625 C 30.5625 27.671875 30.601562 27.730469 30.601562 27.769531 C 30.601562 27.808594 30.628906 27.839844 30.671875 27.839844 C 30.710938 27.839844 30.769531 27.875 30.800781 27.921875 C 30.863281 28.007812 31.601562 28.046875 31.601562 27.960938 C 31.601562 27.9375 31.628906 27.921875 31.660156 27.921875 C 31.761719 27.921875 32 27.652344 32 27.542969 C 32 27.484375 32.019531 27.441406 32.039062 27.441406 C 32.0625 27.441406 32.078125 27.328125 32.078125 27.179688 C 32.078125 27.035156 32.0625 26.921875 32.039062 26.921875 C 32.019531 26.921875 32 26.894531 32 26.859375 C 32 26.792969 31.6875 26.492188 31.535156 26.414062 C 31.414062 26.351562 30.941406 26.339844 30.980469 26.398438 M 8.066406 29.304688 C 8.019531 29.332031 7.96875 29.34375 7.949219 29.335938 C 7.933594 29.324219 7.921875 29.339844 7.917969 29.367188 C 7.917969 29.394531 7.867188 29.484375 7.800781 29.558594 C 7.734375 29.636719 7.679688 29.722656 7.679688 29.75 C 7.679688 29.777344 7.660156 29.800781 7.640625 29.800781 C 7.617188 29.800781 7.597656 29.839844 7.597656 29.890625 C 7.597656 30.003906 7.480469 30.164062 7.453125 30.089844 C 7.441406 30.0625 7.40625 30.039062 7.375 30.039062 C 7.34375 30.039062 7.320312 30.023438 7.320312 30 C 7.320312 29.976562 7.273438 29.960938 7.21875 29.960938 C 7.160156 29.960938 7.125 29.941406 7.140625 29.921875 C 7.152344 29.898438 7.128906 29.878906 7.082031 29.878906 C 7.035156 29.878906 7 29.863281 7 29.839844 C 7 29.78125 6.453125 29.789062 6.28125 29.851562 C 6.132812 29.902344 6.039062 29.972656 6.039062 30.027344 C 6.039062 30.089844 5.941406 30.28125 5.910156 30.28125 C 5.863281 30.28125 5.878906 30.523438 5.933594 30.660156 C 6.015625 30.867188 6.136719 31.039062 6.199219 31.039062 C 6.234375 31.039062 6.289062 31.074219 6.320312 31.121094 C 6.351562 31.164062 6.410156 31.199219 6.449219 31.199219 C 6.488281 31.199219 6.519531 31.21875 6.519531 31.238281 C 6.519531 31.261719 6.554688 31.28125 6.601562 31.28125 C 6.644531 31.28125 6.679688 31.296875 6.679688 31.316406 C 6.679688 31.335938 6.707031 31.359375 6.738281 31.367188 C 6.808594 31.382812 6.714844 31.613281 6.589844 31.726562 C 6.550781 31.761719 6.519531 31.820312 6.519531 31.855469 C 6.519531 31.890625 6.503906 31.921875 6.480469 31.921875 C 6.457031 31.921875 6.441406 32.046875 6.441406 32.21875 C 6.441406 32.394531 6.457031 32.519531 6.480469 32.519531 C 6.503906 32.519531 6.519531 32.546875 6.519531 32.582031 C 6.519531 32.660156 6.699219 32.839844 6.777344 32.839844 C 6.8125 32.839844 6.839844 32.859375 6.839844 32.878906 C 6.839844 32.9375 7.382812 32.929688 7.488281 32.871094 C 7.625 32.789062 7.761719 32.648438 7.761719 32.582031 C 7.761719 32.546875 7.777344 32.519531 7.800781 32.519531 C 7.820312 32.519531 7.839844 32.484375 7.839844 32.441406 C 7.839844 32.394531 7.859375 32.359375 7.878906 32.359375 C 7.902344 32.359375 7.921875 32.34375 7.921875 32.320312 C 7.921875 32.230469 8.050781 32.132812 8.144531 32.152344 C 8.195312 32.160156 8.238281 32.183594 8.238281 32.203125 C 8.238281 32.222656 8.277344 32.238281 8.320312 32.238281 C 8.363281 32.238281 8.398438 32.257812 8.398438 32.28125 C 8.398438 32.304688 8.417969 32.316406 8.4375 32.300781 C 8.457031 32.289062 8.503906 32.308594 8.535156 32.34375 C 8.570312 32.378906 8.601562 32.394531 8.601562 32.382812 C 8.601562 32.367188 8.652344 32.386719 8.71875 32.417969 C 8.851562 32.488281 9.0625 32.5 9.101562 32.441406 C 9.113281 32.417969 9.167969 32.398438 9.222656 32.398438 C 9.285156 32.398438 9.320312 32.378906 9.320312 32.335938 C 9.320312 32.304688 9.339844 32.285156 9.359375 32.300781 C 9.382812 32.3125 9.398438 32.292969 9.398438 32.253906 C 9.398438 32.21875 9.410156 32.199219 9.425781 32.210938 C 9.46875 32.253906 9.558594 32.128906 9.558594 32.023438 C 9.558594 31.964844 9.578125 31.921875 9.601562 31.921875 C 9.621094 31.921875 9.640625 31.828125 9.640625 31.71875 C 9.640625 31.609375 9.621094 31.519531 9.601562 31.519531 C 9.578125 31.519531 9.558594 31.484375 9.558594 31.441406 C 9.558594 31.394531 9.546875 31.359375 9.53125 31.359375 C 9.511719 31.359375 9.480469 31.320312 9.460938 31.273438 C 9.4375 31.226562 9.382812 31.167969 9.339844 31.144531 C 9.296875 31.121094 9.214844 31.070312 9.15625 31.03125 C 9.097656 30.992188 9.039062 30.976562 9.023438 30.992188 C 9.007812 31.007812 9 30.996094 9.007812 30.964844 C 9.015625 30.929688 8.960938 30.894531 8.871094 30.863281 L 8.71875 30.820312 L 8.820312 30.699219 C 9.175781 30.269531 9.207031 29.777344 8.90625 29.40625 C 8.800781 29.277344 8.246094 29.210938 8.066406 29.304688 M 11.96875 32.140625 C 11.941406 32.171875 11.921875 32.21875 11.921875 32.25 C 11.921875 32.277344 11.882812 32.328125 11.839844 32.359375 C 11.796875 32.390625 11.761719 32.441406 11.761719 32.46875 C 11.761719 32.539062 11.699219 32.535156 11.625 32.460938 C 11.59375 32.425781 11.519531 32.398438 11.464844 32.398438 C 11.40625 32.398438 11.359375 32.382812 11.359375 32.359375 C 11.359375 32.339844 11.304688 32.320312 11.238281 32.320312 C 11.175781 32.320312 11.121094 32.339844 11.121094 32.359375 C 11.121094 32.382812 11.089844 32.398438 11.050781 32.398438 C 10.9375 32.398438 10.875 32.546875 10.886719 32.78125 C 10.890625 32.9375 10.910156 33 10.949219 33 C 10.980469 33 10.992188 33.019531 10.980469 33.039062 C 10.964844 33.0625 10.980469 33.078125 11.007812 33.078125 C 11.09375 33.078125 11.277344 33.175781 11.296875 33.226562 C 11.320312 33.289062 11.277344 33.441406 11.234375 33.441406 C 11.214844 33.441406 11.199219 33.46875 11.199219 33.5 C 11.199219 33.53125 11.183594 33.558594 11.160156 33.558594 C 11.136719 33.558594 11.121094 33.613281 11.121094 33.675781 C 11.121094 33.742188 11.136719 33.804688 11.160156 33.820312 C 11.183594 33.832031 11.199219 33.871094 11.199219 33.90625 C 11.199219 34.132812 11.65625 34.203125 11.804688 34 C 11.855469 33.933594 11.917969 33.878906 11.949219 33.878906 C 11.976562 33.878906 12 33.851562 12 33.816406 C 12 33.679688 12.121094 33.613281 12.203125 33.710938 C 12.3125 33.847656 12.675781 33.839844 12.816406 33.699219 C 12.921875 33.59375 12.96875 33.238281 12.878906 33.238281 C 12.859375 33.238281 12.839844 33.203125 12.839844 33.160156 C 12.839844 33.105469 12.8125 33.078125 12.761719 33.078125 C 12.714844 33.078125 12.679688 33.0625 12.679688 33.039062 C 12.679688 33.019531 12.644531 33 12.605469 33 C 12.5625 33 12.519531 32.976562 12.507812 32.949219 C 12.480469 32.875 12.523438 32.679688 12.566406 32.679688 C 12.625 32.679688 12.605469 32.199219 12.542969 32.136719 C 12.464844 32.058594 12.039062 32.0625 11.96875 32.140625 "/>
<path style=" stroke:none;fill-rule:evenodd;fill:rgb(84.705882%,7.843137%,7.843137%);fill-opacity:1;" d="M 8.3125 29.269531 C 8.382812 29.277344 8.492188 29.277344 8.550781 29.269531 C 8.609375 29.257812 8.550781 29.253906 8.421875 29.253906 C 8.289062 29.253906 8.238281 29.261719 8.3125 29.269531 "/>
<path style=" stroke:none;fill-rule:evenodd;fill:rgb(84.705882%,7.843137%,7.843137%);fill-opacity:1;" d="M 8.3125 29.269531 C 8.382812 29.277344 8.492188 29.277344 8.550781 29.269531 C 8.609375 29.257812 8.550781 29.253906 8.421875 29.253906 C 8.289062 29.253906 8.238281 29.261719 8.3125 29.269531 "/>
<path style=" stroke:none;fill-rule:evenodd;fill:rgb(84.705882%,7.843137%,7.843137%);fill-opacity:1;" d="M 8.3125 29.269531 C 8.382812 29.277344 8.492188 29.277344 8.550781 29.269531 C 8.609375 29.257812 8.550781 29.253906 8.421875 29.253906 C 8.289062 29.253906 8.238281 29.261719 8.3125 29.269531 "/>
<path style=" stroke:none;fill-rule:evenodd;fill:rgb(84.705882%,7.843137%,7.843137%);fill-opacity:1;" d="M 8.3125 29.269531 C 8.382812 29.277344 8.492188 29.277344 8.550781 29.269531 C 8.609375 29.257812 8.550781 29.253906 8.421875 29.253906 C 8.289062 29.253906 8.238281 29.261719 8.3125 29.269531 "/>
<path style=" stroke:none;fill-rule:evenodd;fill:rgb(84.705882%,7.843137%,7.843137%);fill-opacity:1;" d="M 8.3125 29.269531 C 8.382812 29.277344 8.492188 29.277344 8.550781 29.269531 C 8.609375 29.257812 8.550781 29.253906 8.421875 29.253906 C 8.289062 29.253906 8.238281 29.261719 8.3125 29.269531 "/>
<path style=" stroke:none;fill-rule:evenodd;fill:rgb(84.705882%,7.843137%,7.843137%);fill-opacity:1;" d="M 8.3125 29.269531 C 8.382812 29.277344 8.492188 29.277344 8.550781 29.269531 C 8.609375 29.257812 8.550781 29.253906 8.421875 29.253906 C 8.289062 29.253906 8.238281 29.261719 8.3125 29.269531 "/>
<path style=" stroke:none;fill-rule:evenodd;fill:rgb(84.705882%,7.843137%,7.843137%);fill-opacity:1;" d="M 8.3125 29.269531 C 8.382812 29.277344 8.492188 29.277344 8.550781 29.269531 C 8.609375 29.257812 8.550781 29.253906 8.421875 29.253906 C 8.289062 29.253906 8.238281 29.261719 8.3125 29.269531 "/>
<path style=" stroke:none;fill-rule:evenodd;fill:rgb(84.705882%,7.843137%,7.843137%);fill-opacity:1;" d="M 8.3125 29.269531 C 8.382812 29.277344 8.492188 29.277344 8.550781 29.269531 C 8.609375 29.257812 8.550781 29.253906 8.421875 29.253906 C 8.289062 29.253906 8.238281 29.261719 8.3125 29.269531 "/>
</g>
</svg>
