<?xml version="1.0" encoding="UTF-8"?>
<svg version="1.1" xmlns="http://www.w3.org/2000/svg" width="474" height="474">
<path d="M0 0 C1.7370766 0.49307045 3.47454875 0.98474923 5.21238708 1.47512817 C9.78465031 2.76934853 14.35133162 4.08226974 18.91705322 5.39935303 C23.43563733 6.69939175 27.95920773 7.98180803 32.48242188 9.265625 C40.46883772 11.53516534 48.45083303 13.81978783 56.43063736 16.11245632 C62.24810532 17.78363764 68.0671675 19.44912686 73.88769531 21.10961914 C74.662324 21.33061374 75.43695269 21.55160833 76.23505497 21.77929974 C77.76106128 22.21463419 79.28707016 22.64995966 80.81308174 23.08527565 C92.73957611 26.48832833 104.66044956 29.90991902 116.56915283 33.37478638 C127.61600851 36.58706842 138.66659696 39.78463972 149.74609375 42.8828125 C150.68791504 43.14642578 151.62973633 43.41003906 152.60009766 43.68164062 C158.0277843 45.19499994 163.46102145 46.68697656 168.89828491 48.16548157 C172.16326888 49.05444857 175.4267424 49.94889241 178.69012451 50.84371948 C180.28936564 51.28060073 181.88932604 51.71485895 183.49005127 52.14627075 C191.64198482 54.3435867 199.51849732 56.56221086 207.12109375 60.3203125 C207.12109375 60.9803125 207.12109375 61.6403125 207.12109375 62.3203125 C207.78109375 62.3203125 208.44109375 62.3203125 209.12109375 62.3203125 C212.27690945 67.1526553 214.1628877 70.38208701 213.12109375 76.3203125 C208.7826327 85.68993006 199.15017568 88.77494822 190.12109375 92.3203125 C190.53681641 93.62355469 190.53681641 93.62355469 190.9609375 94.953125 C191.32316406 96.10554688 191.68539063 97.25796875 192.05859375 98.4453125 C192.41824219 99.58226563 192.77789062 100.71921875 193.1484375 101.890625 C195.10228107 108.78008145 195.2413292 115.23451719 195.2265625 122.34375 C195.24001565 124.52084326 195.25503826 126.69792729 195.27148438 128.875 C195.29431579 132.28743723 195.30858095 135.69882435 195.29614258 139.11132812 C195.28730565 142.4187263 195.31626692 145.72406525 195.3515625 149.03125 C195.33321602 150.54880386 195.33321602 150.54880386 195.3144989 152.09701538 C195.42049168 158.33108924 196.45939201 161.85697761 200.65254211 166.53994751 C204.89667105 171.68522017 205.60006303 178.4442114 205.4296875 184.8984375 C205.11477533 187.36990009 204.49712073 189.33190764 203.55859375 191.6328125 C201.54801833 196.79037553 202.96982766 200.00352579 204.68359375 205.0703125 C207.66204569 215.08203956 205.54625374 222.60379963 202.12109375 232.3203125 C201.68796875 233.60615234 201.68796875 233.60615234 201.24609375 234.91796875 C198.55378581 242.30979637 194.36194152 248.73622283 190.12109375 255.3203125 C189.31575737 256.58682722 188.51108213 257.85376255 187.70703125 259.12109375 C185.53262667 262.53532499 183.35326514 265.94343784 181.12109375 269.3203125 C180.60160156 270.11308594 180.08210938 270.90585937 179.546875 271.72265625 C179.07636719 272.24988281 178.60585938 272.77710938 178.12109375 273.3203125 C177.13109375 273.3203125 176.14109375 273.3203125 175.12109375 273.3203125 C173.4445076 271.20689105 171.99991912 269.15072658 170.55859375 266.8828125 C169.9075769 265.8786731 169.9075769 265.8786731 169.2434082 264.85424805 C167.85131439 262.68707087 166.4822718 260.50702872 165.12109375 258.3203125 C164.67185547 257.59908203 164.22261719 256.87785156 163.75976562 256.13476562 C158.42807237 247.4969569 153.53445653 238.92212974 150.12109375 229.3203125 C149.80398438 228.44890625 149.486875 227.5775 149.16015625 226.6796875 C146.05810976 217.40200718 146.61501115 210.36709557 150.12109375 201.3203125 C151.33511402 197.67825168 150.81761438 197.25736778 149.18359375 193.9453125 C146.14900494 186.61970863 145.61635938 179.48988291 148.33203125 171.96484375 C152.09880879 164.11579715 152.09880879 164.11579715 155.1965332 161.70532227 C157.99389999 158.23868823 157.6758232 154.8641231 157.6171875 150.6015625 C157.61864273 149.74784058 157.62009796 148.89411865 157.62159729 148.01452637 C157.61993825 146.20561315 157.60837628 144.39668582 157.58764648 142.58789062 C157.5589835 139.85744039 157.56697908 137.12896984 157.58007812 134.3984375 C157.56769782 124.98854201 157.15035947 116.3330039 154.12109375 107.3203125 C153.79109375 106.3303125 153.46109375 105.3403125 153.12109375 104.3203125 C152.26596191 104.67367676 151.41083008 105.02704102 150.52978516 105.39111328 C140.84907703 109.33348892 131.06398346 112.86608037 121.18240356 116.26977539 C116.47818913 117.8905583 111.7782712 119.52371446 107.078125 121.15625 C106.10320602 121.49464905 105.12828705 121.8330481 104.12382507 122.18170166 C91.29032571 126.6424541 78.49541453 131.21182159 65.69873047 135.77685547 C54.69196088 139.70236567 43.67244396 143.58894911 32.63955688 147.44042969 C28.33660282 148.9437653 24.03561882 150.45271733 19.734375 151.9609375 C17.16190124 152.86240748 14.58937774 153.7637354 12.0168457 154.66503906 C10.27490259 155.27548468 8.5330424 155.88616697 6.79125977 156.49707031 C4.21002168 157.40233185 1.62847714 158.30671475 -0.953125 159.2109375 C-1.71888351 159.47972717 -2.48464203 159.74851685 -3.27360535 160.02545166 C-5.4736368 160.79549655 -7.67618952 161.55798867 -9.87890625 162.3203125 C-10.66702698 162.59902191 -11.45514771 162.87773132 -12.26715088 163.16488647 C-23.13425522 166.93163278 -30.83301871 165.13717021 -41.50390625 161.1953125 C-43.40153406 160.51739328 -45.29917719 159.83951603 -47.19726562 159.16288757 C-49.26965529 158.42180577 -51.33947652 157.67384175 -53.40917969 156.92529297 C-58.19191552 155.20112881 -62.99114046 153.5255949 -67.79296875 151.85546875 C-69.50724424 151.25895586 -71.22151832 150.66243891 -72.93579102 150.06591797 C-73.79117462 149.76828552 -74.64655823 149.47065308 -75.52786255 149.16400146 C-88.37072217 144.68962156 -101.1889207 140.15194797 -113.97436523 135.51586914 C-121.85439388 132.66736995 -129.76755251 129.91921712 -137.69140625 127.1953125 C-138.92793945 126.77016357 -140.16447266 126.34501465 -141.43847656 125.90698242 C-143.83229249 125.08444832 -146.22617051 124.26209488 -148.62011719 123.43994141 C-160.68985868 119.29311533 -172.70511082 115.02617991 -184.67687988 110.60385132 C-185.32104858 110.36590851 -185.96521729 110.1279657 -186.62890625 109.8828125 C-187.27130249 109.64543365 -187.91369873 109.40805481 -188.57556152 109.16348267 C-198.15762643 105.62777476 -207.79174605 102.29297449 -217.49682617 99.10888672 C-223.85349893 97.0165973 -230.16237016 94.82292583 -236.44140625 92.5078125 C-237.19703857 92.22969727 -237.9526709 91.95158203 -238.73120117 91.66503906 C-254.2887891 85.86779423 -254.2887891 85.86779423 -259.75390625 78.9453125 C-261.25824378 75.4351916 -261.33694418 73.11548394 -260.87890625 69.3203125 C-258.27285733 63.02236095 -254.87122971 60.37026424 -248.87890625 57.3203125 C-245.26254162 55.94663605 -241.58197568 54.9116135 -237.8515625 53.89453125 C-236.77475723 53.58994492 -235.69795197 53.28535858 -234.58851624 52.97154236 C-231.0427122 51.97169052 -227.49219458 50.98980176 -223.94140625 50.0078125 C-221.44416916 49.30700002 -218.94726677 48.60499391 -216.45068359 47.90185547 C-210.57199588 46.24894771 -204.69037208 44.60693451 -198.80704117 42.97064209 C-188.07873489 39.98611985 -177.35861364 36.97231239 -166.63696289 33.96398926 C-163.01423022 32.94820725 -159.39094789 31.93440525 -155.76757812 30.92089844 C-142.11443523 27.09815971 -128.49038147 23.19362572 -114.90087891 19.15075684 C-105.09718316 16.23544731 -95.2599229 13.48613373 -85.37329102 10.86547852 C-77.34798955 8.73400378 -69.36008127 6.48619542 -61.37890625 4.1953125 C-60.20150879 3.85935059 -59.02411133 3.52338867 -57.81103516 3.17724609 C-52.70843981 1.7190534 -47.61235148 0.24760004 -42.53515625 -1.296875 C-41.73658203 -1.53390137 -40.93800781 -1.77092773 -40.11523438 -2.01513672 C-38.70884224 -2.43306242 -37.30582853 -2.86271455 -35.90820312 -3.30908203 C-23.46040601 -6.95724411 -11.99135383 -3.49005833 0 0 Z M-48.87890625 63.3203125 C-48.96430075 66.73609264 -48.21337469 67.96493978 -45.87890625 70.4453125 C-38.98894249 74.75153985 -32.02311008 75.8545693 -24.00390625 75.7578125 C-23.13056641 75.75096436 -22.25722656 75.74411621 -21.35742188 75.73706055 C-13.25262241 75.53594703 -6.28808467 74.41956561 -0.12890625 68.8203125 C1.26078388 66.47834577 1.26078388 66.47834577 1.18359375 64.2578125 C-1.35961607 59.62019459 -5.74680364 57.69476462 -10.55786133 55.95092773 C-14.74062532 54.81449359 -18.88084806 54.8344625 -23.19140625 54.8828125 C-24.11622803 54.88893555 -25.0410498 54.89505859 -25.99389648 54.90136719 C-34.86854532 55.10432336 -42.8443413 56.27543577 -48.87890625 63.3203125 Z " fill="#D11417" transform="translate(260.87890625,22.6796875)"/>
<path d="M0 0 C5.55291306 0.52149764 10.32671657 1.60833244 15.515625 3.6953125 C16.20523819 3.96366913 16.89485138 4.23202576 17.60536194 4.5085144 C19.06944994 5.07910812 20.53199872 5.65366529 21.99307251 6.23193359 C25.79942361 7.73810706 29.61703457 9.21524151 33.43359375 10.6953125 C34.18082199 10.98593567 34.92805023 11.27655884 35.69792175 11.57598877 C41.52899918 13.8372536 47.39586229 15.97228204 53.3125 18 C59.44841132 20.10427879 65.50986074 22.32844736 71.55078125 24.6953125 C75.90109441 26.34084432 80.29157418 27.85642258 84.6875 29.375 C91.11877704 31.59914746 97.48725793 33.92783483 103.8125 36.4375 C111.89353995 39.64230256 120.07497382 42.51754765 128.2980957 45.33569336 C129.22710693 45.65417236 130.15611816 45.97265137 131.11328125 46.30078125 C131.93610596 46.58091064 132.75893066 46.86104004 133.60668945 47.1496582 C135.25290272 47.73455678 136.87845828 48.37995092 138.48193359 49.07348633 C149.63746733 53.1781257 160.84789929 47.63546548 171.1875 43.625 C172.96795842 42.95151688 174.74923068 42.28018192 176.53125 41.61083984 C180.34346287 40.17705912 184.15198158 38.73399371 187.95849609 37.28515625 C197.38134333 33.70883126 206.85030167 30.25717079 216.31448364 26.79211426 C219.48906862 25.62900506 222.66255635 24.46295159 225.83569336 23.29589844 C237.23445046 19.10437727 248.64182672 14.94123978 260.08276367 10.8659668 C264.74657282 9.19811732 269.38473271 7.47954526 274.00390625 5.69140625 C275.47005371 5.12413818 275.47005371 5.12413818 276.96582031 4.54541016 C278.79978654 3.83164182 280.63137964 3.11173029 282.45996094 2.38427734 C283.66507324 1.91368896 283.66507324 1.91368896 284.89453125 1.43359375 C285.94411011 1.01678345 285.94411011 1.01678345 287.01489258 0.59155273 C289 0 289 0 293 0 C293.33 23.76 293.66 47.52 294 72 C295.98 72.66 297.96 73.32 300 74 C313.50464163 82.16775576 322.17729809 96.96235144 326 112 C329.74012445 128.23072873 329.29508809 145.22661545 321 160 C312.69098553 173.06854703 302.7148831 186.80821001 287.84765625 192.78125 C279.28172653 196.0410484 279.28172653 196.0410484 273.74609375 202.97265625 C272.53087743 206.04290478 271.54376181 209.16872286 270.5625 212.3203125 C267.04275975 223.60663747 259.13259942 233.74942346 252 243 C251.49210937 243.66257812 250.98421875 244.32515625 250.4609375 245.0078125 C249.36465355 246.38618121 248.19165582 247.70319808 247 249 C246.34 249 245.68 249 245 249 C244.77441406 249.556875 244.54882812 250.11375 244.31640625 250.6875 C230.62279857 274.7427396 191.34159404 289.7192908 166.328125 296.87109375 C138.87380658 304.26298015 109.92392513 293.48484546 86.08447266 279.90917969 C72.94061797 272.04581039 59.66931805 262.95941969 50 251 C49.21496094 250.21753906 48.42992187 249.43507813 47.62109375 248.62890625 C36.7406808 237.71606286 26.60123823 223.55682535 21.97265625 208.703125 C20.05585956 202.67305996 18.78230098 198.76685269 13 195.75 C12.03707031 195.31171875 11.07414062 194.8734375 10.08203125 194.421875 C-5.31259096 187.31966653 -18.99374922 173.80445779 -27 159 C-27.59167969 157.99259766 -27.59167969 157.99259766 -28.1953125 156.96484375 C-36.69655944 141.63111316 -35.24314915 123.39321079 -31 107 C-26.608977 93.32831667 -18.2433736 80.91162154 -5.5625 73.8125 C-4.29599609 73.17248047 -4.29599609 73.17248047 -3.00390625 72.51953125 C-0.81327113 71.17499255 -0.81327113 71.17499255 -0.3818512 68.81916809 C0.04919907 65.63676831 0.11966742 62.58606299 0.11352539 59.3737793 C0.11367142 58.72931351 0.11381744 58.08484772 0.1139679 57.42085266 C0.11327506 55.30527296 0.10551231 53.18978294 0.09765625 51.07421875 C0.09578983 49.60162911 0.09436699 48.12903885 0.09336853 46.65644836 C0.08956096 42.79147612 0.07974579 38.9265418 0.06866455 35.06158447 C0.0584125 31.11332716 0.05386279 27.16506368 0.04882812 23.21679688 C0.03812187 15.47784735 0.02106669 7.738929 0 0 Z M34 70 C33.58319332 73.67547706 33.23047748 77.34892931 32.92578125 81.03515625 C32.30059982 87.48830017 30.85256173 92.37055754 27.0625 97.75 C23.15097617 100.62377261 19.49894991 101.17118623 14.8125 102.19921875 C11.03962869 103.27343905 9.32463054 104.87627771 7 108 C6.29875 108.86625 5.5975 109.7325 4.875 110.625 C0.61674602 118.28985717 -1.37034542 127.27504842 0 136 C1.87771581 141.10796254 4.46771589 145.84270047 8 150 C8.66 150 9.32 150 10 150 C10.2475 150.61875 10.495 151.2375 10.75 151.875 C12.20628639 154.35068687 13.37812506 154.95125002 16 156 C16 156.66 16 157.32 16 158 C23.22337575 163.46186513 30.38978464 166.8762543 39.22265625 168.91796875 C43.47425714 170.57435897 45.24285812 173.33103135 47.08984375 177.40234375 C47.36957031 178.23894531 47.64929688 179.07554687 47.9375 179.9375 C48.43443359 181.37416016 48.43443359 181.37416016 48.94140625 182.83984375 C49.67852434 185.04031805 50.41549216 187.24084269 51.15234375 189.44140625 C59.69894628 214.31666153 76.51692899 232.35922502 98 247 C99.26070312 247.86238281 99.26070312 247.86238281 100.546875 248.7421875 C115.96370014 258.57705871 136.72276556 267.9168944 155.2734375 264.375 C186.34901712 256.95396606 215.5002224 237.9895467 233 211 C238.2521365 202.13341242 242.00505055 192.86840827 245.01049805 183.02685547 C246.79001156 177.2396816 248.52606391 172.21938328 254 169 C256.734375 168.19140625 256.734375 168.19140625 259.75 167.5625 C271.6123358 164.71152799 281.49490095 158.0414725 288.2890625 147.71875 C293.3495931 139.13875573 295.35949883 132.30061579 293.50390625 122.3359375 C291.41492245 114.71173674 287.98675177 107.19205106 281 103 C279.38348988 102.5125685 277.75716711 102.05711686 276.125 101.625 C271.1086837 100.23989774 267.20993677 98.1856846 264 94 C261.8683942 89.02377739 261.42916003 84.01880484 260.9375 78.6875 C260.89851168 73.42331318 260.89851168 73.42331318 259 69 C248.28494464 69.18340182 237.56283191 70.84143857 226.94921875 72.21484375 C225.2388002 72.43318578 223.52833466 72.65116007 221.81782532 72.86878967 C217.34751927 73.43842549 212.87779422 74.01249215 208.40820312 74.58770752 C202.13572996 75.39414021 195.86248379 76.19454035 189.58930969 76.99549866 C186.26324276 77.42017716 182.93739982 77.84654372 179.61174011 78.2743988 C176.55626647 78.6674327 173.50008175 79.05403339 170.44320679 79.43600464 C167.4567984 79.80987407 164.47533315 80.20962415 161.49453735 80.62576294 C153.1397285 81.75832082 145.39264083 82.12646317 137 81 C135.1141047 80.78182617 133.22820315 80.56370455 131.34218121 80.34662819 C127.78172202 79.93012437 124.22514804 79.4825523 120.66796875 79.0390625 C119.1035639 78.8457115 117.53913567 78.65254952 115.97468567 78.45956421 C112.70600637 78.05586558 109.43752233 77.65063424 106.16918945 77.24414062 C102.05272102 76.73217767 97.93592715 76.22289537 93.81899834 75.7146492 C89.8101967 75.21962978 85.80155638 74.72331161 81.79296875 74.2265625 C81.01332638 74.12997597 80.23368401 74.03338943 79.43041611 73.93387604 C71.87010942 72.99612591 64.31162032 72.04968985 56.76025391 71.04199219 C55.69446609 70.89990326 54.62867828 70.75781433 53.53059387 70.61141968 C51.62373878 70.35514132 49.71734388 70.09540013 47.81156921 69.83120728 C40.45386407 68.26181662 40.45386407 68.26181662 34 70 Z " fill="#D11619" transform="translate(90,173)"/>
<path d="M0 0 C7.09076231 3.83248358 11.6683916 9.08572152 14.33984375 16.6953125 C16.17942676 24.33665732 15.81089178 31.4313004 12.21484375 38.45703125 C10.37894257 41.44996341 8.45552407 43.91735687 6 46.4375 C5.34 46.4375 4.68 46.4375 4 46.4375 C4 47.0975 4 47.7575 4 48.4375 C-4.32646046 52.64771928 -12.63759528 54.30404468 -21.76953125 51.625 C-28.97907499 48.43552443 -35.09409929 42.94065756 -38.1953125 35.61328125 C-40.00623615 28.46628645 -40.53397295 19.58731034 -37.25 12.8125 C-36.53585158 11.66440722 -35.78872857 10.53569499 -35 9.4375 C-34.4225 8.550625 -33.845 7.66375 -33.25 6.75 C-24.71322765 -2.02390491 -11.44196898 -4.63221581 0 0 Z " fill="#D1181B" transform="translate(313,275.5625)"/>
<path d="M0 0 C1.14809278 0.71414842 2.27680501 1.46127143 3.375 2.25 C4.261875 2.8275 5.14875 3.405 6.0625 4 C12.38596367 10.15255924 14.50619668 16.2635677 14.6875 24.9375 C14.59243676 32.58216861 13.55945571 37.7581644 8.3515625 43.46875 C1.21303322 50.1930984 -4.86236434 52.8090237 -14.69140625 52.5390625 C-21.79993632 51.83862145 -28.44258486 48.80547338 -33.2578125 43.42578125 C-39.27744782 35.79218573 -40.58531728 28.88964052 -39.625 19.25 C-37.69016429 11.081981 -33.56279566 5.62532888 -26.69921875 0.93359375 C-18.99251278 -3.231801 -7.94907707 -3.8010767 0 0 Z " fill="#D1191C" transform="translate(185.625,275.75)"/>
<path d="M0 0 C0.66 0.33 1.32 0.66 2 1 C-1.3 4.3 -4.6 7.6 -8 11 C-8 7.0234755 -6.61988497 5.9109833 -4 3 C-1.75 1.1875 -1.75 1.1875 0 0 Z " fill="#D06162" transform="translate(286,277)"/>
<path d="M0 0 C0.66 0.33 1.32 0.66 2 1 C1.0479279 2.00596297 0.08812654 3.00461563 -0.875 4 C-1.40867187 4.556875 -1.94234375 5.11375 -2.4921875 5.6875 C-4 7 -4 7 -6 7 C-4.60667426 3.63279613 -3.0210714 2.0140476 0 0 Z " fill="#CF5557" transform="translate(344,341)"/>
</svg>
