<?xml version="1.0" encoding="UTF-8"?>
<svg xmlns="http://www.w3.org/2000/svg" xmlns:xlink="http://www.w3.org/1999/xlink" width="34px" height="34px" viewBox="0 0 34 34" version="1.1">
<g id="surface1">
<path style=" stroke:none;fill-rule:nonzero;fill:rgb(82.352941%,7.45098%,8.235294%);fill-opacity:1;" d="M 10.265625 6.09375 C 11.007812 6.59375 11.007812 6.59375 11.546875 7.054688 C 11.347656 8.210938 10.867188 8.898438 10.164062 9.824219 C 8.660156 11.914062 7.648438 14.097656 7.378906 16.679688 C 7.707031 16.707031 8.039062 16.730469 8.378906 16.757812 C 10.449219 17.160156 11.628906 18.195312 12.832031 19.886719 C 13.5625 21.347656 13.410156 23.527344 12.941406 25.0625 C 12.140625 26.585938 10.667969 28.199219 8.996094 28.753906 C 6.882812 29.117188 4.75 29.050781 2.886719 27.90625 C 1.109375 26.289062 0.015625 24.738281 -0.109375 22.300781 C -0.160156 19.261719 -0.175781 16.539062 1.28125 13.792969 C 1.425781 13.515625 1.570312 13.242188 1.71875 12.960938 C 3.234375 10.265625 6.664062 4.890625 10.265625 6.09375 Z M 10.265625 6.09375 "/>
<path style=" stroke:none;fill-rule:nonzero;fill:rgb(82.352941%,7.45098%,8.235294%);fill-opacity:1;" d="M 30.351562 5.792969 C 31.15625 6.113281 31.738281 6.496094 32.394531 7.054688 C 32.199219 8.210938 31.71875 8.882812 31.011719 9.804688 C 29.496094 11.910156 28.691406 14.136719 28.226562 16.679688 C 28.597656 16.6875 28.96875 16.691406 29.347656 16.699219 C 31.109375 16.914062 32.214844 17.949219 33.359375 19.246094 C 34.363281 20.804688 34.179688 22.59375 34 24.378906 C 33.503906 26.191406 32.5625 27.238281 31.011719 28.253906 C 29.320312 29.167969 27.34375 29.144531 25.515625 28.660156 C 23.761719 27.964844 22.472656 26.96875 21.492188 25.339844 C 20.136719 22.144531 20.453125 17.839844 21.710938 14.667969 C 23.117188 11.746094 26.582031 5.703125 30.351562 5.792969 Z M 30.351562 5.792969 "/>
</g>
</svg>
