<svg id="svg" version="1.1" xmlns="http://www.w3.org/2000/svg" xmlns:xlink="http://www.w3.org/1999/xlink" width="400" height="400" viewBox="0, 0, 400,400"><g id="svgg"><path id="path0" d="M142.200 12.400 C 142.064 12.620,141.344 12.800,140.600 12.800 C 139.856 12.800,139.136 12.980,139.000 13.200 C 138.864 13.420,138.324 13.600,137.800 13.600 C 137.276 13.600,136.736 13.780,136.600 14.000 C 136.464 14.220,135.823 14.400,135.176 14.400 C 134.529 14.400,133.999 14.535,133.997 14.700 C 133.993 15.035,132.077 16.000,131.416 16.000 C 131.183 16.000,130.768 16.360,130.493 16.800 C 130.218 17.240,129.753 17.600,129.459 17.600 C 129.165 17.600,128.598 17.960,128.200 18.400 C 127.802 18.840,127.322 19.200,127.133 19.200 C 126.685 19.200,119.200 26.685,119.200 27.133 C 119.200 27.322,118.840 27.802,118.400 28.200 C 117.960 28.598,117.600 29.165,117.600 29.459 C 117.600 29.753,117.240 30.218,116.800 30.493 C 116.360 30.768,116.000 31.214,116.000 31.484 C 116.000 31.754,115.640 32.617,115.200 33.400 C 114.760 34.183,114.400 35.168,114.400 35.589 C 114.400 36.009,114.220 36.464,114.000 36.600 C 113.780 36.736,113.600 37.276,113.600 37.800 C 113.600 38.324,113.420 38.864,113.200 39.000 C 112.980 39.136,112.800 39.856,112.800 40.600 C 112.800 41.344,112.620 42.064,112.400 42.200 C 112.144 42.358,112.000 48.271,112.000 58.624 L 112.000 74.800 70.600 74.800 C 43.267 74.800,29.200 74.936,29.200 75.200 C 29.200 75.420,28.480 75.600,27.600 75.600 C 26.720 75.600,26.000 75.780,26.000 76.000 C 26.000 76.220,25.550 76.400,25.000 76.400 C 24.450 76.400,24.000 76.600,24.000 76.845 C 24.000 77.113,23.520 77.220,22.800 77.115 C 22.140 77.018,21.600 77.045,21.600 77.175 C 21.600 77.305,20.925 77.726,20.100 78.110 C 19.275 78.495,17.790 79.425,16.800 80.178 C 15.810 80.931,14.836 81.559,14.635 81.573 C 14.061 81.615,6.800 89.171,6.800 89.726 C 6.800 90.000,6.440 90.483,6.000 90.800 C 5.560 91.117,5.200 91.685,5.200 92.061 C 5.200 92.438,4.840 92.860,4.400 93.000 C 3.960 93.140,3.600 93.591,3.600 94.003 C 3.600 94.416,3.420 94.864,3.200 95.000 C 2.980 95.136,2.800 95.597,2.800 96.024 C 2.800 96.451,2.620 96.800,2.400 96.800 C 2.180 96.800,2.000 97.250,2.000 97.800 C 2.000 98.350,1.820 98.800,1.600 98.800 C 1.380 98.800,1.200 99.304,1.200 99.920 C 1.200 100.536,0.975 101.265,0.700 101.540 C -0.033 102.273,-0.033 188.056,0.700 188.300 C 0.975 188.392,1.200 188.992,1.200 189.633 C 1.200 190.275,1.380 190.800,1.600 190.800 C 1.820 190.800,2.000 191.160,2.000 191.600 C 2.000 192.040,2.180 192.400,2.400 192.400 C 2.620 192.400,2.800 192.760,2.800 193.200 C 2.800 193.640,2.935 194.001,3.100 194.003 C 3.459 194.007,4.400 195.944,4.400 196.680 C 4.400 196.966,4.580 197.200,4.800 197.200 C 5.020 197.200,5.200 197.488,5.200 197.840 C 5.200 198.191,5.740 198.983,6.400 199.600 C 7.060 200.217,7.600 200.914,7.600 201.151 C 7.600 201.713,48.287 242.400,48.849 242.400 C 49.086 242.400,49.783 242.940,50.400 243.600 C 51.017 244.260,51.809 244.800,52.160 244.800 C 52.512 244.800,52.800 244.980,52.800 245.200 C 52.800 245.420,53.034 245.600,53.320 245.600 C 54.056 245.600,55.993 246.541,55.997 246.900 C 55.999 247.065,56.360 247.200,56.800 247.200 C 57.240 247.200,57.600 247.380,57.600 247.600 C 57.600 247.820,57.960 248.000,58.400 248.000 C 58.840 248.000,59.200 248.180,59.200 248.400 C 59.200 248.620,59.740 248.800,60.400 248.800 C 61.060 248.800,61.600 248.980,61.600 249.200 C 61.600 249.420,62.219 249.600,62.976 249.600 C 63.733 249.600,64.464 249.780,64.600 250.000 C 64.755 250.251,69.004 250.400,76.024 250.400 L 87.200 250.400 87.200 237.600 L 87.200 224.800 80.000 224.800 C 75.467 224.800,72.800 224.652,72.800 224.400 C 72.800 224.180,71.990 224.000,71.000 224.000 C 70.010 224.000,69.200 223.820,69.200 223.600 C 69.200 223.380,68.928 223.200,68.595 223.200 C 67.353 223.200,65.831 221.773,47.029 202.971 C 28.227 184.169,26.800 182.647,26.800 181.405 C 26.800 181.072,26.620 180.800,26.400 180.800 C 26.180 180.800,26.000 179.990,26.000 179.000 C 26.000 178.010,25.820 177.200,25.600 177.200 C 25.337 177.200,25.200 166.200,25.200 145.000 C 25.200 123.800,25.337 112.800,25.600 112.800 C 25.820 112.800,26.000 111.900,26.000 110.800 C 26.000 109.700,26.180 108.800,26.400 108.800 C 26.620 108.800,26.800 108.440,26.800 108.000 C 26.800 107.560,26.980 107.200,27.200 107.200 C 27.420 107.200,27.600 106.967,27.600 106.682 C 27.600 105.014,33.475 101.200,36.044 101.200 C 36.874 101.200,37.664 101.020,37.800 100.800 C 37.964 100.535,78.804 100.400,159.024 100.400 C 239.408 100.400,280.000 100.266,280.000 100.000 C 280.000 99.780,280.360 99.600,280.800 99.600 C 281.240 99.600,281.600 99.420,281.600 99.200 C 281.600 98.980,281.875 98.800,282.211 98.800 C 283.004 98.800,286.400 95.404,286.400 94.611 C 286.400 94.275,286.536 94.000,286.703 94.000 C 287.960 94.000,288.844 42.969,287.600 42.200 C 287.380 42.064,287.200 41.344,287.200 40.600 C 287.200 39.856,287.020 39.136,286.800 39.000 C 286.580 38.864,286.400 38.324,286.400 37.800 C 286.400 37.276,286.220 36.736,286.000 36.600 C 285.780 36.464,285.600 35.823,285.600 35.176 C 285.600 34.529,285.465 33.999,285.300 33.997 C 284.965 33.993,284.000 32.077,284.000 31.416 C 284.000 31.183,283.640 30.768,283.200 30.493 C 282.760 30.218,282.400 29.753,282.400 29.459 C 282.400 29.165,282.040 28.598,281.600 28.200 C 281.160 27.802,280.800 27.322,280.800 27.133 C 280.800 26.685,273.315 19.200,272.867 19.200 C 272.678 19.200,272.198 18.840,271.800 18.400 C 271.402 17.960,270.835 17.600,270.541 17.600 C 270.247 17.600,269.782 17.240,269.507 16.800 C 269.232 16.360,268.817 16.000,268.584 16.000 C 267.923 16.000,266.007 15.035,266.003 14.700 C 266.001 14.535,265.471 14.400,264.824 14.400 C 264.177 14.400,263.536 14.220,263.400 14.000 C 263.264 13.780,262.724 13.600,262.200 13.600 C 261.676 13.600,261.136 13.420,261.000 13.200 C 260.864 12.980,260.144 12.800,259.400 12.800 C 258.656 12.800,257.936 12.620,257.800 12.400 C 257.458 11.847,142.542 11.847,142.200 12.400 M249.600 38.400 C 249.600 38.620,250.416 38.800,251.413 38.800 C 256.173 38.800,261.200 43.827,261.200 48.587 C 261.200 49.584,261.380 50.400,261.600 50.400 C 261.858 50.400,262.000 54.733,262.000 62.600 L 262.000 74.800 200.000 74.800 L 138.000 74.800 138.000 62.600 C 138.000 54.733,138.142 50.400,138.400 50.400 C 138.620 50.400,138.800 49.584,138.800 48.587 C 138.800 43.827,143.827 38.800,148.587 38.800 C 149.584 38.800,150.400 38.620,150.400 38.400 C 150.400 38.135,167.200 38.000,200.000 38.000 C 232.800 38.000,249.600 38.135,249.600 38.400 M320.000 75.200 C 320.000 75.420,319.640 75.600,319.200 75.600 C 318.760 75.600,318.400 75.780,318.400 76.000 C 318.400 76.220,318.085 76.403,317.700 76.406 C 316.874 76.414,314.304 78.571,314.677 78.944 C 314.818 79.085,314.633 79.200,314.267 79.200 C 313.899 79.200,313.599 79.514,313.599 79.900 C 313.598 80.285,313.238 81.189,312.799 81.910 C 311.486 84.063,311.896 94.000,313.297 94.000 C 313.464 94.000,313.600 94.275,313.600 94.611 C 313.600 95.404,316.996 98.800,317.789 98.800 C 318.125 98.800,318.400 98.980,318.400 99.200 C 318.400 99.420,318.760 99.600,319.200 99.600 C 319.640 99.600,320.000 99.780,320.000 100.000 C 320.000 100.262,327.259 100.400,340.976 100.400 C 354.529 100.400,362.040 100.542,362.200 100.800 C 362.336 101.020,363.126 101.200,363.956 101.200 C 366.525 101.200,372.400 105.014,372.400 106.682 C 372.400 106.967,372.580 107.200,372.800 107.200 C 373.020 107.200,373.200 107.560,373.200 108.000 C 373.200 108.440,373.380 108.800,373.600 108.800 C 373.820 108.800,374.000 109.700,374.000 110.800 C 374.000 111.900,374.180 112.800,374.400 112.800 C 374.663 112.800,374.800 123.800,374.800 145.000 C 374.800 166.200,374.663 177.200,374.400 177.200 C 374.180 177.200,374.000 178.010,374.000 179.000 C 374.000 179.990,373.820 180.800,373.600 180.800 C 373.380 180.800,373.200 181.072,373.200 181.405 C 373.200 182.647,371.773 184.169,352.971 202.971 C 334.169 221.773,332.647 223.200,331.405 223.200 C 331.072 223.200,330.800 223.380,330.800 223.600 C 330.800 223.820,329.990 224.000,329.000 224.000 C 328.010 224.000,327.200 224.180,327.200 224.400 C 327.200 224.652,324.533 224.800,320.000 224.800 L 312.800 224.800 312.800 237.600 L 312.800 250.400 323.976 250.400 C 330.996 250.400,335.245 250.251,335.400 250.000 C 335.536 249.780,336.267 249.600,337.024 249.600 C 337.781 249.600,338.400 249.420,338.400 249.200 C 338.400 248.980,338.940 248.800,339.600 248.800 C 340.260 248.800,340.800 248.620,340.800 248.400 C 340.800 248.180,341.160 248.000,341.600 248.000 C 342.040 248.000,342.400 247.820,342.400 247.600 C 342.400 247.380,342.760 247.200,343.200 247.200 C 343.640 247.200,344.001 247.065,344.003 246.900 C 344.007 246.541,345.944 245.600,346.680 245.600 C 346.966 245.600,347.200 245.420,347.200 245.200 C 347.200 244.980,347.488 244.800,347.840 244.800 C 348.191 244.800,348.983 244.260,349.600 243.600 C 350.217 242.940,350.912 242.400,351.145 242.400 C 351.378 242.400,353.822 240.150,356.576 237.400 C 359.330 234.650,361.677 232.400,361.792 232.400 C 361.906 232.400,362.000 258.770,362.000 291.000 C 362.000 329.800,361.865 349.600,361.600 349.600 C 361.380 349.600,361.200 350.416,361.200 351.413 C 361.200 356.173,356.173 361.200,351.413 361.200 C 350.416 361.200,349.600 361.380,349.600 361.600 C 349.600 361.866,299.467 362.000,200.000 362.000 C 100.533 362.000,50.400 361.866,50.400 361.600 C 50.400 361.380,49.584 361.200,48.587 361.200 C 43.827 361.200,38.800 356.173,38.800 351.413 C 38.800 350.416,38.620 349.600,38.400 349.600 C 38.136 349.600,38.000 334.265,38.000 304.394 C 38.000 259.435,37.908 256.000,36.703 256.000 C 36.536 256.000,36.400 255.725,36.400 255.389 C 36.400 254.596,33.004 251.200,32.211 251.200 C 31.875 251.200,31.600 251.020,31.600 250.800 C 31.600 250.580,31.240 250.400,30.800 250.400 C 30.360 250.400,30.000 250.220,30.000 250.000 C 30.000 249.755,28.067 249.600,25.000 249.600 C 21.933 249.600,20.000 249.755,20.000 250.000 C 20.000 250.220,19.640 250.400,19.200 250.400 C 18.760 250.400,18.400 250.580,18.400 250.800 C 18.400 251.020,18.125 251.200,17.789 251.200 C 16.996 251.200,13.600 254.596,13.600 255.389 C 13.600 255.725,13.464 256.000,13.297 256.000 C 12.014 256.000,11.123 357.011,12.400 357.800 C 12.620 357.936,12.800 358.656,12.800 359.400 C 12.800 360.144,12.980 360.864,13.200 361.000 C 13.420 361.136,13.600 361.580,13.600 361.986 C 13.600 362.683,14.021 363.662,16.057 367.700 C 17.754 371.065,18.025 371.523,18.608 372.007 C 18.934 372.277,19.200 372.652,19.200 372.840 C 19.200 373.319,26.634 380.800,27.111 380.800 C 27.326 380.800,27.723 381.066,27.993 381.392 C 28.263 381.717,28.960 382.224,29.542 382.518 C 30.124 382.812,30.960 383.245,31.400 383.481 C 34.256 385.008,37.419 386.400,38.033 386.400 C 38.429 386.400,38.864 386.580,39.000 386.800 C 39.136 387.020,39.856 387.200,40.600 387.200 C 41.344 387.200,42.064 387.380,42.200 387.600 C 42.543 388.155,357.457 388.155,357.800 387.600 C 357.936 387.380,358.656 387.200,359.400 387.200 C 360.144 387.200,360.864 387.020,361.000 386.800 C 361.136 386.580,361.580 386.400,361.986 386.400 C 362.683 386.400,363.662 385.979,367.700 383.943 C 371.065 382.246,371.523 381.975,372.007 381.392 C 372.277 381.066,372.658 380.800,372.854 380.800 C 373.319 380.800,380.800 373.319,380.800 372.854 C 380.800 372.658,381.066 372.277,381.392 372.007 C 381.975 371.523,382.246 371.065,383.943 367.700 C 385.979 363.662,386.400 362.683,386.400 361.986 C 386.400 361.580,386.580 361.136,386.800 361.000 C 387.020 360.864,387.200 360.144,387.200 359.400 C 387.200 358.656,387.380 357.936,387.600 357.800 C 387.864 357.637,388.000 331.848,388.000 281.733 L 388.000 205.913 390.200 203.748 C 391.410 202.557,392.400 201.389,392.400 201.152 C 392.400 200.915,392.940 200.217,393.600 199.600 C 394.260 198.983,394.800 198.191,394.800 197.840 C 394.800 197.488,394.980 197.200,395.200 197.200 C 395.420 197.200,395.600 196.966,395.600 196.680 C 395.600 195.944,396.541 194.007,396.900 194.003 C 397.065 194.001,397.200 193.640,397.200 193.200 C 397.200 192.760,397.380 192.400,397.600 192.400 C 397.820 192.400,398.000 192.040,398.000 191.600 C 398.000 191.160,398.180 190.800,398.400 190.800 C 398.620 190.800,398.800 190.275,398.800 189.633 C 398.800 188.992,399.025 188.392,399.300 188.300 C 399.696 188.168,399.800 179.168,399.800 145.087 C 399.800 111.183,399.694 101.934,399.300 101.540 C 399.025 101.265,398.800 100.536,398.800 99.920 C 398.800 99.304,398.620 98.800,398.400 98.800 C 398.180 98.800,398.000 98.350,398.000 97.800 C 398.000 97.250,397.820 96.800,397.600 96.800 C 397.380 96.800,397.200 96.451,397.200 96.024 C 397.200 95.597,397.020 95.136,396.800 95.000 C 396.580 94.864,396.400 94.416,396.400 94.003 C 396.400 93.591,396.040 93.140,395.600 93.000 C 395.160 92.860,394.800 92.438,394.800 92.061 C 394.800 91.685,394.440 91.117,394.000 90.800 C 393.560 90.483,393.200 90.000,393.200 89.726 C 393.200 89.171,385.939 81.615,385.365 81.573 C 385.164 81.559,384.190 80.931,383.200 80.178 C 382.210 79.425,380.725 78.495,379.900 78.110 C 379.075 77.726,378.400 77.305,378.400 77.175 C 378.400 77.045,377.860 77.018,377.200 77.115 C 376.480 77.220,376.000 77.113,376.000 76.845 C 376.000 76.600,375.550 76.400,375.000 76.400 C 374.450 76.400,374.000 76.220,374.000 76.000 C 374.000 75.780,373.280 75.600,372.400 75.600 C 371.520 75.600,370.800 75.420,370.800 75.200 C 370.800 74.938,362.067 74.800,345.400 74.800 C 328.733 74.800,320.000 74.938,320.000 75.200 M94.500 200.144 C 94.005 200.389,93.600 200.727,93.600 200.895 C 93.600 201.063,93.325 201.200,92.989 201.200 C 92.196 201.200,88.800 204.596,88.800 205.389 C 88.800 205.725,88.620 206.000,88.400 206.000 C 88.180 206.000,88.000 206.360,88.000 206.800 C 88.000 207.240,87.820 207.600,87.600 207.600 C 87.346 207.600,87.200 210.600,87.200 215.800 C 87.200 222.822,87.286 224.000,87.800 224.000 C 88.321 224.000,88.400 225.757,88.400 237.413 C 88.400 248.966,88.317 250.857,87.800 251.055 C 87.078 251.333,86.886 266.959,87.600 267.400 C 87.820 267.536,88.000 267.997,88.000 268.424 C 88.000 268.851,88.180 269.200,88.400 269.200 C 88.620 269.200,88.800 269.433,88.800 269.718 C 88.800 270.002,89.520 270.917,90.400 271.751 C 91.280 272.585,92.000 273.415,92.000 273.596 C 92.000 273.777,92.360 273.831,92.800 273.716 C 93.247 273.599,93.600 273.704,93.600 273.953 C 93.600 274.199,93.870 274.400,94.200 274.400 C 94.530 274.400,94.800 274.580,94.800 274.800 C 94.800 275.061,100.933 275.200,112.400 275.200 C 123.867 275.200,130.000 275.061,130.000 274.800 C 130.000 274.580,130.360 274.400,130.800 274.400 C 131.240 274.400,131.600 274.220,131.600 274.000 C 131.600 273.780,131.915 273.597,132.300 273.594 C 133.126 273.586,135.696 271.429,135.323 271.056 C 135.182 270.915,135.367 270.800,135.733 270.800 C 136.101 270.800,136.401 270.486,136.401 270.100 C 136.402 269.715,136.762 268.811,137.201 268.090 C 138.430 266.075,138.429 251.405,137.200 251.084 C 136.420 250.880,136.400 250.538,136.400 237.600 C 136.400 224.662,136.420 224.320,137.200 224.116 C 138.688 223.727,138.202 206.000,136.703 206.000 C 136.536 206.000,136.400 205.725,136.400 205.389 C 136.400 204.596,133.004 201.200,132.211 201.200 C 131.875 201.200,131.600 201.020,131.600 200.800 C 131.600 200.580,131.240 200.400,130.800 200.400 C 130.360 200.400,130.000 200.220,130.000 200.000 C 130.000 199.415,95.690 199.555,94.500 200.144 M270.000 200.000 C 270.000 200.220,269.640 200.400,269.200 200.400 C 268.760 200.400,268.400 200.580,268.400 200.800 C 268.400 201.020,268.125 201.200,267.789 201.200 C 266.996 201.200,263.600 204.596,263.600 205.389 C 263.600 205.725,263.464 206.000,263.297 206.000 C 261.798 206.000,261.312 223.727,262.800 224.116 C 263.580 224.320,263.600 224.662,263.600 237.600 C 263.600 250.538,263.580 250.880,262.800 251.084 C 261.571 251.405,261.570 266.075,262.799 268.090 C 263.238 268.811,263.598 269.715,263.599 270.100 C 263.599 270.486,263.899 270.800,264.267 270.800 C 264.633 270.800,264.818 270.915,264.677 271.056 C 264.304 271.429,266.874 273.586,267.700 273.594 C 268.085 273.597,268.400 273.780,268.400 274.000 C 268.400 274.220,268.760 274.400,269.200 274.400 C 269.640 274.400,270.000 274.580,270.000 274.800 C 270.000 275.061,276.133 275.200,287.600 275.200 C 299.067 275.200,305.200 275.061,305.200 274.800 C 305.200 274.580,305.470 274.400,305.800 274.400 C 306.130 274.400,306.400 274.199,306.400 273.953 C 306.400 273.704,306.753 273.599,307.200 273.716 C 307.640 273.831,308.000 273.777,308.000 273.596 C 308.000 273.415,308.720 272.585,309.600 271.751 C 310.480 270.917,311.200 270.002,311.200 269.718 C 311.200 269.433,311.380 269.200,311.600 269.200 C 311.820 269.200,312.000 268.851,312.000 268.424 C 312.000 267.997,312.180 267.536,312.400 267.400 C 313.114 266.959,312.922 251.333,312.200 251.055 C 311.683 250.857,311.600 248.966,311.600 237.413 C 311.600 225.757,311.679 224.000,312.200 224.000 C 312.714 224.000,312.800 222.822,312.800 215.800 C 312.800 210.600,312.654 207.600,312.400 207.600 C 312.180 207.600,312.000 207.240,312.000 206.800 C 312.000 206.360,311.820 206.000,311.600 206.000 C 311.380 206.000,311.200 205.725,311.200 205.389 C 311.200 204.596,307.804 201.200,307.011 201.200 C 306.675 201.200,306.399 201.065,306.397 200.900 C 306.395 200.735,305.909 200.375,305.317 200.100 C 303.945 199.463,270.000 199.367,270.000 200.000 M137.782 225.303 C 137.675 225.581,137.636 231.296,137.694 238.004 L 137.800 250.200 200.000 250.200 L 262.200 250.200 262.200 237.600 L 262.200 225.000 200.088 224.899 C 150.340 224.818,137.937 224.898,137.782 225.303 " stroke="none" fill="#d41414" fill-rule="evenodd"></path><path id="path1" d="M27.105 75.483 C 27.602 75.579,28.322 75.575,28.705 75.475 C 29.087 75.375,28.680 75.296,27.800 75.301 C 26.920 75.305,26.607 75.387,27.105 75.483 M371.505 75.483 C 372.002 75.579,372.722 75.575,373.105 75.475 C 373.487 75.375,373.080 75.296,372.200 75.301 C 371.320 75.305,371.007 75.387,371.505 75.483 M87.400 237.600 C 87.400 244.860,87.535 250.800,87.700 250.800 C 87.865 250.800,88.000 244.860,88.000 237.600 C 88.000 230.340,87.865 224.400,87.700 224.400 C 87.535 224.400,87.400 230.340,87.400 237.600 M136.895 237.467 C 136.985 248.671,137.086 250.560,137.600 250.717 C 138.084 250.865,138.104 250.798,137.700 250.370 C 136.996 249.624,136.977 225.583,137.680 224.880 C 138.053 224.507,138.008 224.400,137.475 224.400 C 136.839 224.400,136.797 225.353,136.895 237.467 M262.320 224.880 C 263.023 225.583,263.004 249.624,262.300 250.370 C 261.896 250.798,261.916 250.865,262.400 250.717 C 263.382 250.417,263.506 224.400,262.525 224.400 C 261.992 224.400,261.947 224.507,262.320 224.880 M312.000 237.600 C 312.000 244.860,312.135 250.800,312.300 250.800 C 312.465 250.800,312.600 244.860,312.600 237.600 C 312.600 230.340,312.465 224.400,312.300 224.400 C 312.135 224.400,312.000 230.340,312.000 237.600 " stroke="none" fill="#bc344c" fill-rule="evenodd"></path><path id="path2" d="" stroke="none" fill="#d81420" fill-rule="evenodd"></path><path id="path3" d="M87.500 224.265 C 88.147 224.526,88.235 250.617,87.590 250.937 C 87.365 251.049,87.409 251.094,87.690 251.037 C 88.610 250.851,88.625 223.990,87.705 224.032 C 87.287 224.050,87.203 224.145,87.500 224.265 M136.582 224.503 C 135.873 226.351,136.631 250.994,137.400 251.109 C 138.131 251.219,138.140 251.192,137.500 250.795 C 136.857 250.395,136.800 249.311,136.800 237.409 C 136.800 225.412,136.852 224.445,137.500 224.276 C 138.156 224.104,138.155 224.090,137.487 224.046 C 137.096 224.021,136.688 224.226,136.582 224.503 M262.500 224.252 C 263.148 224.443,263.200 225.421,263.200 237.409 C 263.200 249.311,263.143 250.395,262.500 250.795 C 261.860 251.192,261.869 251.219,262.600 251.109 C 263.382 250.992,263.400 250.682,263.400 237.600 C 263.400 224.505,263.382 224.209,262.600 224.128 C 261.978 224.064,261.956 224.092,262.500 224.252 M311.695 237.467 C 311.777 247.994,311.911 250.956,312.310 251.037 C 312.591 251.094,312.636 251.049,312.410 250.937 C 311.765 250.617,311.853 224.526,312.500 224.265 C 312.797 224.145,312.713 224.050,312.295 224.032 C 311.632 224.002,311.596 224.819,311.695 237.467 M87.379 237.600 C 87.379 244.750,87.433 247.675,87.499 244.100 C 87.566 240.525,87.566 234.675,87.499 231.100 C 87.433 227.525,87.379 230.450,87.379 237.600 M137.467 225.067 C 137.097 225.437,137.129 249.909,137.500 250.138 C 137.665 250.240,137.800 244.581,137.800 237.562 C 137.800 230.543,137.785 224.800,137.767 224.800 C 137.748 224.800,137.613 224.920,137.467 225.067 M262.200 237.600 C 262.200 244.598,262.335 250.240,262.500 250.138 C 262.665 250.036,262.800 244.394,262.800 237.600 C 262.800 230.806,262.665 225.164,262.500 225.062 C 262.335 224.960,262.200 230.602,262.200 237.600 M312.579 237.600 C 312.579 244.750,312.633 247.675,312.699 244.100 C 312.766 240.525,312.766 234.675,312.699 231.100 C 312.633 227.525,312.579 230.450,312.579 237.600 " stroke="none" fill="#c82820" fill-rule="evenodd"></path><path id="path4" d="" stroke="none" fill="#d81420" fill-rule="evenodd"></path><path id="path5" d="" stroke="none" fill="#d81420" fill-rule="evenodd"></path><path id="path6" d="" stroke="none" fill="#d81420" fill-rule="evenodd"></path><path id="path7" d="" stroke="none" fill="#d81420" fill-rule="evenodd"></path><path id="path8" d="" stroke="none" fill="#d81420" fill-rule="evenodd"></path></g></svg>